<svg xmlns="http://www.w3.org/2000/svg" width="72" height="55.313" viewBox="0 0 72 55.313"><g transform="translate(-1199 -1785)"><g transform="translate(1199 1785)" fill="#e0ddee" stroke="#4a154f" stroke-width="2"><rect width="72" height="44" rx="2" stroke="none"/><rect x="1" y="1" width="70" height="42" rx="1" fill="none"/></g><rect width="58" height="30" transform="translate(1204 1790)" fill="#fff"/><g transform="translate(1199 1818)" fill="#c1bcd8" stroke="#4a154f" stroke-width="2"><rect width="72" height="11" rx="2" stroke="none"/><rect x="1" y="1" width="70" height="9" rx="1" fill="none"/></g><circle cx="1.5" cy="1.5" r="1.5" transform="translate(1234 1822)" fill="#4a154f"/><g transform="translate(-1.857)"><path d="M1223.857,1837.571h31.625v4.763h-31.625Z" transform="translate(-2.937 -2.771)" fill="#a3a3cd" stroke="#4a154f" stroke-linejoin="bevel" stroke-width="1.5"/><path d="M1233.156,1829a7.322,7.322,0,0,1-.25,3.531,7.432,7.432,0,0,1-2.25,2.755h10.156a6.1,6.1,0,0,1-2.156-2.755,8.257,8.257,0,0,1,0-3.531Z" transform="translate(1.451 -0.5)" fill="#7e7eb0" stroke="#4a154f" stroke-linejoin="bevel" stroke-width="1.5"/><path d="M1231.925,1829a13.905,13.905,0,0,1-.332,2.844,4.8,4.8,0,0,1-1.016,1.922h3.578a6.779,6.779,0,0,1-.844-2.141,8.885,8.885,0,0,1,0-2.625Z" transform="translate(3.451 0.266)" fill="#a2a4cd"/></g><path d="M1203.5,1792.25v23" transform="translate(1)" fill="none" stroke="#fff" stroke-linecap="round" stroke-width="1.5"/><path d="M1204.5,1823.313v2.188" transform="translate(0 -1)" fill="none" stroke="#fff" stroke-linecap="round" stroke-width="1"/><path d="M1219.272,1796.206c-7.235-.991-10.4,3.826-10.4,7.157s3.162,8.451,10.4,6.717,15.274-12.057,22.4-13.874,9.754,4.432,9.754,7.157-3.591,8.23-10.719,6.717S1226.507,1797.2,1219.272,1796.206Z" transform="translate(5 2)" fill="none" stroke="#4a154f" stroke-width="2"/><rect width="7" height="7" transform="translate(1262 1820)" fill="#aa93bf"/></g></svg>