<svg xmlns="http://www.w3.org/2000/svg" width="67" height="58" viewBox="0 0 67 58"><g transform="translate(-247 -1238)"><rect width="63" height="41" rx="2" transform="translate(249 1255)" fill="#a2a4cd"/><rect width="5" height="41" rx="2" transform="translate(307 1255)" fill="#7e7db2"/><g transform="translate(249 1255)" fill="none" stroke="#4d164e" stroke-width="2"><rect width="63" height="41" rx="2" stroke="none"/><rect x="1" y="1" width="61" height="39" rx="1" fill="none"/></g><g transform="translate(247 1274)" fill="#a2a4cd"><path d="M 63.65554428100586 21.0000057220459 L 3.344456195831299 21.0000057220459 L 33.49999618530273 1.196365594863892 L 63.65554428100586 21.0000057220459 Z" stroke="none"/><path d="M 33.5 2.392715454101563 L 6.688926696777344 19.99999618530273 L 60.31108856201172 20.0000057220459 L 33.5 2.392715454101563 M 33.49999618530273 0.1963558197021484 C 33.6911506652832 0.1963558197021484 33.88230514526367 0.2510662078857422 34.04892730712891 0.3604850769042969 L 64.20447540283203 20.16413497924805 C 65.03447723388672 20.70921516418457 64.64852905273438 22.0000057220459 63.65554809570313 22.0000057220459 L 3.344455718994141 21.99999618530273 C 2.351463317871094 22.0000057220459 1.96551513671875 20.70921516418457 2.795524597167969 20.16413497924805 L 32.95106506347656 0.3604850769042969 C 33.1176872253418 0.2510662078857422 33.30884170532227 0.1963558197021484 33.49999618530273 0.1963558197021484 Z" stroke="none" fill="#4a1851"/></g><g transform="translate(314 1280) rotate(180)" fill="#7e7db2"><path d="M 63.98799896240234 23.99999809265137 L 3.012010097503662 23.99999809265137 C 3.012006759643555 23.99999809265137 3.012003183364868 23.99999809265137 3.01200008392334 23.99999809265137 L 33.4999885559082 1.247757911682129 L 63.98799896240234 23.99999809265137 Z" stroke="none"/><path d="M 33.49999618530273 2.495529174804688 L 6.024017333984375 22.99999809265137 L 60.97598266601563 22.99999809265137 L 33.49999618530273 2.495529174804688 M 33.5 0.2477645874023438 C 33.71034622192383 0.2477645874023438 33.92069625854492 0.3139533996582031 34.09807968139648 0.4463272094726563 L 64.58608245849609 23.19856834411621 C 65.35723876953125 23.77405738830566 64.95021820068359 24.99999809265137 63.98799133300781 24.99999809265137 L 3.012001037597656 24.99999809265137 C 2.049781799316406 24.99999809265137 1.64276123046875 23.77405738830566 2.413917541503906 23.19856834411621 L 32.90190887451172 0.4463272094726563 C 33.07929992675781 0.3139533996582031 33.28964996337891 0.2477645874023438 33.5 0.2477645874023438 Z" stroke="none" fill="#4b1651"/></g><g transform="translate(261 1238)" fill="#fff"><path d="M 19.62091636657715 39.76163101196289 L 0.5 26.36480903625488 L 0.5 0.5 L 41.5 0.5 L 41.5 23.99402236938477 L 19.62091636657715 39.76163101196289 Z" stroke="none"/><path d="M 1 1 L 1 26.1046142578125 L 19.61683464050293 39.14825820922852 L 41 23.7380428314209 L 41 1 L 1 1 M 0 0 L 42 0 L 42 24.25 L 19.625 40.375 L 0 26.625 L 0 0 Z" stroke="none" fill="#4d164e"/></g><g transform="translate(265 1245)" fill="#aa93bf" stroke="#4b1651" stroke-width="1"><rect width="12" height="10" rx="1" stroke="none"/><rect x="0.5" y="0.5" width="11" height="9" rx="0.5" fill="none"/></g><g transform="translate(279 1245)" fill="#aa93bf" stroke="#4b1651" stroke-width="1"><rect width="21" height="3" rx="1" stroke="none"/><rect x="0.5" y="0.5" width="20" height="2" rx="0.5" fill="none"/></g><g transform="translate(280 1252)" fill="#aa93bf" stroke="#4b1651" stroke-width="1"><rect width="18" height="3" rx="1" stroke="none"/><rect x="0.5" y="0.5" width="17" height="2" rx="0.5" fill="none"/></g><g transform="translate(273 1264)" fill="#aa93bf" stroke="#4b1651" stroke-width="1"><rect width="18" height="3" rx="1" stroke="none"/><rect x="0.5" y="0.5" width="17" height="2" rx="0.5" fill="none"/></g><g transform="translate(265 1258)" fill="#aa93bf" stroke="#4b1651" stroke-width="1"><rect width="35" height="3" rx="1" stroke="none"/><rect x="0.5" y="0.5" width="34" height="2" rx="0.5" fill="none"/></g><path d="M253.286,1263.286v20.286" fill="none" stroke="#fff" stroke-linecap="round" stroke-width="2"/></g></svg>