<svg xmlns="http://www.w3.org/2000/svg" width="65" height="56.829" viewBox="0 0 65 56.829"><g transform="translate(-1033 -1939.171)"><g transform="translate(1033 1990)" fill="#7e7eb0" stroke="#4f1553" stroke-width="1"><rect width="65" height="6" stroke="none"/><rect x="0.5" y="0.5" width="64" height="5" fill="none"/></g><rect width="12" height="9" rx="2" transform="translate(1037 1982)" fill="#aa93bf"/><path d="M1,0H2A2,2,0,0,1,4,2V7A2,2,0,0,1,2,9H1A1,1,0,0,1,0,8V1A1,1,0,0,1,1,0Z" transform="translate(1045 1982)" fill="#9b7fb1"/><g transform="translate(1037 1982)" fill="none" stroke="#48164a" stroke-width="1"><rect width="12" height="9" rx="2" stroke="none"/><rect x="0.5" y="0.5" width="11" height="8" rx="1.5" fill="none"/></g><path d="M10639.094,1985.594v1.547" transform="translate(-9600)" fill="none" stroke="#fff" stroke-linecap="round" stroke-width="1"/><rect width="12" height="27" rx="2" transform="translate(1060 1964)" fill="#aa93bf"/><path d="M0,0H2A2,2,0,0,1,4,2V25a2,2,0,0,1-2,2H0a0,0,0,0,1,0,0V0A0,0,0,0,1,0,0Z" transform="translate(1068 1964)" fill="#9c80b1"/><g transform="translate(1060 1964)" fill="none" stroke="#4c144f" stroke-width="1"><rect width="12" height="27" rx="2" stroke="none"/><rect x="0.5" y="0.5" width="11" height="26" rx="1.5" fill="none"/></g><path d="M10639.094,1985.594v10.266" transform="translate(-9577 -11.719)" fill="none" stroke="#fff" stroke-linecap="round" stroke-width="1"/><rect width="12" height="48" rx="2" transform="translate(1083 1943)" fill="#aa93bf"/><rect width="4" height="48" rx="2" transform="translate(1091 1943)" fill="#9c80b1"/><g transform="translate(1083 1943)" fill="none" stroke="#481749" stroke-width="1"><rect width="12" height="48" rx="2" stroke="none"/><rect x="0.5" y="0.5" width="11" height="47" rx="1.5" fill="none"/></g><path d="M10639.094,1985.594v19.974" transform="translate(-9553 -22.427)" fill="none" stroke="#fff" stroke-linecap="round" stroke-width="1"/><g transform="translate(2 2)"><path d="M10672.75,1937.5,10655,1940l4.167,3.833s-2.9,15.125-23.729,21.292c1.414,1.276,1.875,1.25,1.875,1.25s14.521-2.375,31.354-15.375c7.333,5.833,4.958,3.75,4.958,3.75V1937.5" transform="translate(-9600)" fill="#c2bbda"/><path d="M10667.417,1938.583,10655,1940l4.167,3.833s-2.9,15.125-23.729,21.292c1.414,1.276,1.438.563,1.438.563s14.179-3.861,24.563-11.937c8.774-6.824,10.714-13.714,11.979-15.833" transform="translate(-9600)" fill="#e0ddee"/><path d="M10673.625,1937.667,10655,1940l4.167,3.833s-2.9,15.125-23.729,21.292c1.414,1.276,1.875,1.25,1.875,1.25s14.521-2.375,31.354-15.375c7.333,5.833,4.958,3.75,4.958,3.75v-17.531" transform="translate(-9600)" fill="none" stroke="#481749" stroke-linejoin="bevel" stroke-width="1"/></g></g></svg>