<svg xmlns="http://www.w3.org/2000/svg" width="67" height="49" viewBox="0 0 67 49"><g transform="translate(0 -0.212)"><rect width="67" height="49" rx="2" transform="translate(0 0.212)" fill="#e0ddee"/><g transform="translate(0 0.212)" fill="none" stroke="#441a4f" stroke-width="1"><rect width="67" height="49" rx="2" stroke="none"/><rect x="0.5" y="0.5" width="66" height="48" rx="1.5" fill="none"/></g><g transform="translate(0 0.212)" fill="#7e7eb0" stroke="#441a4f" stroke-width="1"><path d="M2,0H65a2,2,0,0,1,2,2V8a0,0,0,0,1,0,0H1A1,1,0,0,1,0,7V2A2,2,0,0,1,2,0Z" stroke="none"/><path d="M2,.5H65A1.5,1.5,0,0,1,66.5,2V7a.5.5,0,0,1-.5.5H1A.5.5,0,0,1,.5,7V2A1.5,1.5,0,0,1,2,.5Z" fill="none"/></g><g transform="translate(17 12.121)"><g fill="#f1f4f8"><path d="M 15.5 30.5 C 11.49335956573486 30.5 7.726530075073242 28.93972969055176 4.893400192260742 26.10659980773926 C 2.060270071029663 23.27346992492676 0.5 19.50663948059082 0.5 15.5 C 0.5 11.49335956573486 2.060270071029663 7.726530075073242 4.893400192260742 4.893400192260742 C 7.726530075073242 2.060270071029663 11.49335956573486 0.5 15.5 0.5 C 19.50663948059082 0.5 23.27346992492676 2.060270071029663 26.10659980773926 4.893400192260742 C 28.93972969055176 7.726530075073242 30.5 11.49335956573486 30.5 15.5 C 30.5 19.50663948059082 28.93972969055176 23.27346992492676 26.10659980773926 26.10659980773926 C 23.27346992492676 28.93972969055176 19.50663948059082 30.5 15.5 30.5 Z" stroke="none"/><path d="M 15.5 1 C 11.62690925598145 1 7.985639572143555 2.508260726928711 5.246950149536133 5.246950149536133 C 2.508260726928711 7.985639572143555 1 11.62690925598145 1 15.5 C 1 19.37308883666992 2.508260726928711 23.01436042785645 5.246950149536133 25.75304985046387 C 7.985639572143555 28.49173927307129 11.62690925598145 30 15.5 30 C 19.37308883666992 30 23.01436042785645 28.49173927307129 25.75304985046387 25.75304985046387 C 28.49173927307129 23.01436042785645 30 19.37308883666992 30 15.5 C 30 11.62690925598145 28.49173927307129 7.985639572143555 25.75304985046387 5.246950149536133 C 23.01436042785645 2.508260726928711 19.37308883666992 1 15.5 1 M 15.5 0 C 24.06040954589844 0 31 6.939590454101563 31 15.5 C 31 24.06040954589844 24.06040954589844 31 15.5 31 C 6.939590454101563 31 0 24.06040954589844 0 15.5 C 0 6.939590454101563 6.939590454101563 0 15.5 0 Z" stroke="none" fill="#441a4f"/></g><path d="M769.813,1193a54.851,54.851,0,0,0,5.563,0l3.313,4.063,7.063-11.125h6.813l-14.187,17.188Z" transform="translate(-766 -1177)" fill="#a28bb8" stroke="#441a4f" stroke-width="1"/></g></g></svg>