<svg xmlns="http://www.w3.org/2000/svg" width="67" height="49" viewBox="0 0 67 49"><g transform="translate(0 -0.212)"><rect width="67" height="49" rx="2" transform="translate(0 0.212)" fill="#e0ddee"/><g transform="translate(0 0.212)" fill="none" stroke="#441a4f" stroke-width="1"><rect width="67" height="49" rx="2" stroke="none"/><rect x="0.5" y="0.5" width="66" height="48" rx="1.5" fill="none"/></g><g transform="translate(0 0.212)" fill="#7e7eb0" stroke="#441a4f" stroke-width="1"><rect width="67" height="10" rx="2" stroke="none"/><rect x="0.5" y="0.5" width="66" height="9" rx="1.5" fill="none"/></g><path d="M756,1217.714h45.429" transform="translate(-745 -1189.879)" fill="none" stroke="#441a4f" stroke-linecap="round" stroke-width="1" stroke-dasharray="1 2"/><g transform="translate(19 13.121)" fill="#f1f4f8"><path d="M 14.5 28.5 C 10.76045989990234 28.5 7.244760036468506 27.04375076293945 4.600500106811523 24.39949989318848 C 1.956249952316284 21.75523948669434 0.5 18.23954010009766 0.5 14.5 C 0.5 10.76045989990234 1.956249952316284 7.244760036468506 4.600500106811523 4.600500106811523 C 7.244760036468506 1.956249952316284 10.76045989990234 0.5 14.5 0.5 C 18.23954010009766 0.5 21.75523948669434 1.956249952316284 24.39949989318848 4.600500106811523 C 27.04375076293945 7.244760036468506 28.5 10.76045989990234 28.5 14.5 C 28.5 18.23954010009766 27.04375076293945 21.75523948669434 24.39949989318848 24.39949989318848 C 21.75523948669434 27.04375076293945 18.23954010009766 28.5 14.5 28.5 Z" stroke="none"/><path d="M 14.5 1 C 10.89402008056641 1 7.503870010375977 2.404239654541016 4.954059600830078 4.954059600830078 C 2.404239654541016 7.503870010375977 1 10.89402008056641 1 14.5 C 1 18.10597991943359 2.404239654541016 21.49612998962402 4.954059600830078 24.04594039916992 C 7.503870010375977 26.59576034545898 10.89402008056641 28 14.5 28 C 18.10597991943359 28 21.49612998962402 26.59576034545898 24.04594039916992 24.04594039916992 C 26.59576034545898 21.49612998962402 28 18.10597991943359 28 14.5 C 28 10.89402008056641 26.59576034545898 7.503870010375977 24.04594039916992 4.954059600830078 C 21.49612998962402 2.404239654541016 18.10597991943359 1 14.5 1 M 14.5 0 C 22.50812911987305 0 29 6.491870880126953 29 14.5 C 29 22.50812911987305 22.50812911987305 29 14.5 29 C 6.491870880126953 29 0 22.50812911987305 0 14.5 C 0 6.491870880126953 6.491870880126953 0 14.5 0 Z" stroke="none" fill="#441a4f"/></g><g transform="translate(29.5 18.121)" fill="#a2a4cd" stroke="#441a4f" stroke-width="1"><circle cx="4" cy="4" r="4" stroke="none"/><circle cx="4" cy="4" r="3.5" fill="none"/></g><path d="M771.833,1229.75s.75-14.25,6.917-14.25,6.583,14.25,6.583,14.25a19.11,19.11,0,0,1-7.021,1.75A15.012,15.012,0,0,1,771.833,1229.75Z" transform="translate(-745 -1189.879)" fill="#a2a4cd" stroke="#441a4f" stroke-width="1"/><g transform="translate(56 24.212)" fill="#aa93bf" stroke="#441a4f" stroke-width="1"><circle cx="3.5" cy="3.5" r="3.5" stroke="none"/><circle cx="3.5" cy="3.5" r="3" fill="none"/></g><g transform="translate(4 24.212)" fill="#aa93bf" stroke="#441a4f" stroke-width="1"><circle cx="3.5" cy="3.5" r="3.5" stroke="none"/><circle cx="3.5" cy="3.5" r="3" fill="none"/></g></g></svg>