<svg xmlns="http://www.w3.org/2000/svg" width="65" height="61" viewBox="0 0 65 61"><g transform="translate(-647 -1238)"><g transform="translate(647 1247)" fill="#aa93bf" stroke="#4e1650" stroke-width="2"><rect width="65" height="49" rx="3" stroke="none"/><rect x="1" y="1" width="63" height="47" rx="2" fill="none"/></g><rect width="16" height="56" rx="3" transform="translate(654 1243)" fill="#a2a4cd"/><path d="M1,0H6A1,1,0,0,1,7,1V53a1,1,0,0,1-1,1H1c-.552,0-5.333.552-5.333,0L6,0C6-.552.448,0,1,0Z" transform="translate(662 1244)" fill="#7e7eb0"/><g transform="translate(654 1243)" fill="none" stroke="#481950" stroke-width="2"><rect width="16" height="56" rx="3" stroke="none"/><rect x="1" y="1" width="14" height="54" rx="2" fill="none"/></g><rect width="11" height="29" rx="2" transform="translate(677 1262) rotate(-90)" fill="#e0ddee"/><path d="M9.25,28.417,2,29a2,2,0,0,1-2-2L1.25.5S10.355,28.417,9.25,28.417Z" transform="translate(677 1262) rotate(-90)" fill="#c2bbda"/><g transform="translate(677 1262) rotate(-90)" fill="none" stroke="#4e1753" stroke-width="1"><rect width="11" height="29" rx="2" stroke="none"/><rect x="0.5" y="0.5" width="10" height="28" rx="1.5" fill="none"/></g><g transform="translate(0 -1)"><g transform="translate(678 1271) rotate(-90)" fill="#c2bbda" stroke="#4a1851" stroke-width="1"><rect width="3" height="5" stroke="none"/><rect x="0.5" y="0.5" width="2" height="4" fill="none"/></g><g transform="translate(700 1271) rotate(-90)" fill="#c2bbda" stroke="#4a1851" stroke-width="1"><rect width="3" height="5" stroke="none"/><rect x="0.5" y="0.5" width="2" height="4" fill="none"/></g><g transform="translate(689 1271) rotate(-90)" fill="#c2bbda" stroke="#4a1851" stroke-width="1"><rect width="3" height="5" stroke="none"/><rect x="0.5" y="0.5" width="2" height="4" fill="none"/></g><g transform="translate(0 7)"><g transform="translate(678 1271) rotate(-90)" fill="#c2bbda" stroke="#4a1851" stroke-width="1"><rect width="3" height="5" stroke="none"/><rect x="0.5" y="0.5" width="2" height="4" fill="none"/></g><g transform="translate(700 1271) rotate(-90)" fill="#c2bbda" stroke="#4a1851" stroke-width="1"><rect width="3" height="5" stroke="none"/><rect x="0.5" y="0.5" width="2" height="4" fill="none"/></g><g transform="translate(689 1271) rotate(-90)" fill="#c2bbda" stroke="#4a1851" stroke-width="1"><rect width="3" height="5" stroke="none"/><rect x="0.5" y="0.5" width="2" height="4" fill="none"/></g></g><g transform="translate(0 14)"><g transform="translate(678 1271) rotate(-90)" fill="#c2bbda" stroke="#4a1851" stroke-width="1"><rect width="3" height="5" stroke="none"/><rect x="0.5" y="0.5" width="2" height="4" fill="none"/></g><g transform="translate(700 1271) rotate(-90)" fill="#c2bbda" stroke="#4a1851" stroke-width="1"><rect width="3" height="5" stroke="none"/><rect x="0.5" y="0.5" width="2" height="4" fill="none"/></g><g transform="translate(689 1271) rotate(-90)" fill="#c2bbda" stroke="#4a1851" stroke-width="1"><rect width="3" height="5" stroke="none"/><rect x="0.5" y="0.5" width="2" height="4" fill="none"/></g></g><g transform="translate(0 21)"><g transform="translate(678 1271) rotate(-90)" fill="#c2bbda" stroke="#4a1851" stroke-width="1"><rect width="3" height="5" stroke="none"/><rect x="0.5" y="0.5" width="2" height="4" fill="none"/></g><g transform="translate(700 1271) rotate(-90)" fill="#c2bbda" stroke="#4a1851" stroke-width="1"><rect width="3" height="5" stroke="none"/><rect x="0.5" y="0.5" width="2" height="4" fill="none"/></g><g transform="translate(689 1271) rotate(-90)" fill="#c2bbda" stroke="#4a1851" stroke-width="1"><rect width="3" height="5" stroke="none"/><rect x="0.5" y="0.5" width="2" height="4" fill="none"/></g></g></g><g transform="translate(675 1238)" fill="#e0ddee"><path d="M 31.25 10.25 L 0.75 10.25 L 0.75 0.75 L 31.25 0.75 L 31.25 10.25 Z" stroke="none"/><path d="M 1.5 1.5 L 1.5 9.5 L 30.5 9.5 L 30.5 1.5 L 1.5 1.5 M 0 0 L 32 0 L 32 11 L 0 11 L 0 0 Z" stroke="none" fill="#4e1650"/></g></g></svg>