<svg xmlns="http://www.w3.org/2000/svg" width="62.61" height="70.354" viewBox="0 0 62.61 70.354"><g transform="translate(-1032.162 -1936.68)"><path d="M1050.375,2544.625s.125,2.75,4.094,2.656,3.5-2.656,3.5-2.656Z" transform="translate(10.125 -541)" fill="#e0ddee" stroke="#4e1854" stroke-width="1.5"/><g transform="translate(10833 2120)" fill="#e0ddee"><path d="M -9769.7783203125 -126.4331588745117 C -9774.373046875 -126.4330368041992 -9777.255859375 -126.9230728149414 -9778.591796875 -127.9312591552734 C -9779.595703125 -128.6889038085938 -9779.7255859375 -129.7257080078125 -9779.8681640625 -131.4930114746094 C -9779.9765625 -132.8399963378906 -9780.099609375 -134.3667144775391 -9780.84375 -135.9791564941406 C -9781.146484375 -136.6336822509766 -9781.2568359375 -137.2537231445313 -9781.1708984375 -137.822265625 L -9781.078125 -138.4444122314453 L -9781.59765625 -138.7980194091797 C -9784.1552734375 -140.5360260009766 -9786.2734375 -142.8135375976563 -9787.7216796875 -145.3843688964844 C -9789.234375 -148.0677642822266 -9790.0009765625 -150.9668731689453 -9790.0009765625 -154.0011749267578 C -9790.0009765625 -156.5542144775391 -9789.4501953125 -159.0313873291016 -9788.365234375 -161.3638763427734 C -9787.3134765625 -163.6242065429688 -9785.8056640625 -165.6559753417969 -9783.8837890625 -167.4027862548828 C -9781.9560546875 -169.1558074951172 -9779.7080078125 -170.5327758789063 -9777.2041015625 -171.4954223632813 C -9774.6064453125 -172.4940948486328 -9771.845703125 -173.0004730224609 -9768.9990234375 -173.0004730224609 C -9766.15234375 -173.0004730224609 -9763.392578125 -172.4940948486328 -9760.7958984375 -171.4954376220703 C -9758.2919921875 -170.5327758789063 -9756.044921875 -169.1558227539063 -9754.1162109375 -167.4028167724609 C -9752.1953125 -165.6559753417969 -9750.6875 -163.6241912841797 -9749.6357421875 -161.3638916015625 C -9748.55078125 -159.0313568115234 -9748 -156.5541839599609 -9748 -154.0011749267578 C -9748 -150.8757934570313 -9748.8564453125 -147.7775115966797 -9750.4765625 -145.0412750244141 C -9752.0537109375 -142.3792724609375 -9754.341796875 -140.0642242431641 -9757.0947265625 -138.3464050292969 L -9757.6083984375 -138.0256958007813 L -9757.5625 -137.4216461181641 C -9757.525390625 -136.9382019042969 -9757.6044921875 -136.4280395507813 -9757.796875 -135.9053497314453 C -9758.34375 -134.4145050048828 -9758.3408203125 -132.9875335693359 -9758.337890625 -131.7285308837891 C -9758.3349609375 -129.9519958496094 -9758.3818359375 -128.9087524414063 -9759.3916015625 -128.1258239746094 C -9760.77734375 -127.0505218505859 -9763.8974609375 -126.4985580444336 -9768.9296875 -126.4384078979492 C -9769.2177734375 -126.4349365234375 -9769.5029296875 -126.4331665039063 -9769.7783203125 -126.4331588745117 L -9769.7783203125 -126.4331588745117 Z" stroke="none"/><path d="M -9769.7783203125 -127.4331588745117 L -9769.7783203125 -127.4331588745117 C -9769.5068359375 -127.4331665039063 -9769.2255859375 -127.4349060058594 -9768.94140625 -127.4383392333984 C -9763.0380859375 -127.5089111328125 -9760.8232421875 -128.2808532714844 -9760.00390625 -128.9160308837891 C -9759.4169921875 -129.3713226318359 -9759.3349609375 -129.9241485595703 -9759.337890625 -131.7265319824219 C -9759.3408203125 -133.0027923583984 -9759.34375 -134.5911254882813 -9758.7353515625 -136.2509155273438 C -9758.5927734375 -136.6378631591797 -9758.533203125 -137.0060577392578 -9758.5595703125 -137.3452758789063 L -9758.65234375 -138.5533447265625 L -9757.6240234375 -139.1947784423828 C -9755.0068359375 -140.8281707763672 -9752.8330078125 -143.0260620117188 -9751.337890625 -145.5508422851563 C -9749.80859375 -148.1329040527344 -9749 -151.0549774169922 -9749 -154.0011749267578 C -9749 -158.7724761962891 -9751.0556640625 -163.2691345214844 -9754.7890625 -166.6628723144531 C -9756.625 -168.3321838378906 -9758.7666015625 -169.6440582275391 -9761.154296875 -170.5620727539063 C -9763.63671875 -171.5165252685547 -9766.275390625 -172.0004730224609 -9768.9990234375 -172.0004730224609 C -9771.72265625 -172.0004730224609 -9774.36328125 -171.5165100097656 -9776.845703125 -170.5620269775391 C -9779.2333984375 -169.6440277099609 -9781.375 -168.3321380615234 -9783.2119140625 -166.6628112792969 C -9786.9453125 -163.2692260742188 -9789.0009765625 -158.7725677490234 -9789.0009765625 -154.0011749267578 C -9789.0009765625 -151.1409759521484 -9788.27734375 -148.4070434570313 -9786.8505859375 -145.8753051757813 C -9785.4775390625 -143.4381561279297 -9783.466796875 -141.2768859863281 -9781.0361328125 -139.6251220703125 L -9779.9951171875 -138.9178924560547 L -9780.1826171875 -137.6735992431641 C -9780.2392578125 -137.2964324951172 -9780.158203125 -136.8795013427734 -9779.9365234375 -136.3985595703125 C -9779.1171875 -134.6244812011719 -9778.98046875 -132.9326782226563 -9778.87109375 -131.5733032226563 C -9778.732421875 -129.8549041748047 -9778.626953125 -129.210693359375 -9777.9892578125 -128.7294921875 C -9776.849609375 -127.8692016601563 -9774.0869140625 -127.4330520629883 -9769.7783203125 -127.4331588745117 M -9769.7783203125 -125.4331588745117 C -9784.345703125 -125.4327774047852 -9779.2880859375 -130.2265777587891 -9781.751953125 -135.5597686767578 C -9782.15234375 -136.4259033203125 -9782.271484375 -137.2304229736328 -9782.16015625 -137.9709167480469 C -9787.52734375 -141.6181488037109 -9791.0009765625 -147.4402923583984 -9791.0009765625 -154.0011749267578 C -9791.0009765625 -165.0463714599609 -9781.150390625 -174.0004730224609 -9768.9990234375 -174.0004730224609 C -9756.8505859375 -174.0004730224609 -9747 -165.0463714599609 -9747 -154.0011749267578 C -9747 -147.1489868164063 -9750.7890625 -141.1024932861328 -9756.5654296875 -137.4980163574219 C -9756.5185546875 -136.8860015869141 -9756.6083984375 -136.2386322021484 -9756.8583984375 -135.5597686767578 C -9758.7373046875 -130.4364624023438 -9753.294921875 -125.6252365112305 -9768.91796875 -125.4384765625 C -9769.2119140625 -125.434928894043 -9769.5 -125.4331665039063 -9769.7783203125 -125.4331588745117 Z" stroke="none" fill="#4e1854"/></g><g transform="translate(1053.5 1992)" fill="#c2bcd8" stroke-linecap="round" stroke-linejoin="round"><path d="M 10.75 11.25 C 7.458434104919434 11.25 4.154590129852295 10.52098655700684 2.838446378707886 10.19399738311768 L 1.122322678565979 0.7681236863136292 C 3.162335634231567 1.144775867462158 7.020688533782959 1.75 10.75 1.75 C 14.4283447265625 1.75 17.97183227539063 0.9901092052459717 19.89340209960938 0.4939433634281158 L 18.74396514892578 10.20030689239502 C 17.37189483642578 10.53152656555176 14.01852893829346 11.25 10.75 11.25 Z" stroke="none"/><path d="M 18.73178482055664 1.799715995788574 C 16.66825485229492 2.257923126220703 13.75304794311523 2.75 10.75 2.75 C 7.694162368774414 2.75 4.556486129760742 2.352475166320801 2.362524032592773 1.997189521789551 L 3.705537796020508 9.37374210357666 C 5.222933769226074 9.721128463745117 7.986970901489258 10.25 10.75 10.25 C 13.46844291687012 10.25 16.2599925994873 9.733172416687012 17.83357810974121 9.384575843811035 L 18.73178482055664 1.799715995788574 M 21.0625 -0.875 L 19.65625 11 C 19.65625 11 15.17187023162842 12.25 10.75 12.25 C 6.328120231628418 12.25 1.96875 11 1.96875 11 L -0.125 -0.5 C -0.125 -0.5 5.5 0.75 10.75 0.75 C 16 0.75 21.0625 -0.875 21.0625 -0.875 Z" stroke="none" fill="#4e1854"/></g><path d="M10655.857,1954.429a19.43,19.43,0,0,0-4.357,3.446,12.71,12.71,0,0,0-2.357,4.268" transform="translate(-9600)" fill="none" stroke="#fff" stroke-linecap="round" stroke-width="4"/><circle cx="2" cy="2" r="2" transform="translate(1059 1950)" fill="#fff"/><path d="M10667.583,1993s4.916-19.25,5-21.083-.812-1.542-2.666,0-4.75,4.625-4.75,6.167,4.354,1.542,4.75,0-1.229-4.625-3.167-6.167-2.291-1.542-4.583,0-4.584,4.625-4.584,6.167,4.479,1.646,4.584,0-2.083-4.937-4.167-6.583-4-1.583-4.167,0,7.084,21.5,7.084,21.5" transform="translate(-9600)" fill="none" stroke="#4e1854" stroke-width="1"/><path d="M10655.857,1996.5a32.036,32.036,0,0,0,4.268-.562" transform="translate(-9600 1)" fill="none" stroke="#4e1854" stroke-linecap="round" stroke-width="1.5"/><path d="M10655.858,1996.5a33.268,33.268,0,0,0,5.053.1,40.379,40.379,0,0,0,5.074-.659" transform="translate(-9780.025 1695.313) rotate(-9)" fill="none" stroke="#4e1854" stroke-linecap="round" stroke-width="1.5"/><path d="M10672.406,1994.813c-.125,0-1.937.531-1.937.531" transform="translate(-9600 1)" fill="none" stroke="#4e1854" stroke-linecap="round" stroke-width="1.5"/><path d="M10675.436,1994.813a19.934,19.934,0,0,1-2.468.474,14.933,14.933,0,0,1-2.5.057" transform="translate(-9783.729 1699.18) rotate(-9)" fill="none" stroke="#4e1854" stroke-linecap="round" stroke-width="1.5"/><rect width="3" height="7" rx="1.5" transform="matrix(0.358, -0.934, 0.934, 0.358, 1032.162, 1958.325)" fill="#4e1854"/><rect width="3" height="7" rx="1.5" transform="matrix(0.358, 0.934, -0.934, 0.358, 1093.697, 1955.525)" fill="#4e1854"/><rect width="3" height="7" rx="1.5" transform="translate(1062.467 1936.68)" fill="#4e1854"/></g></svg>