<svg xmlns="http://www.w3.org/2000/svg" width="70.89" height="50" viewBox="0 0 70.89 50"><g transform="translate(-1186 -1780)"><g transform="translate(1186 1780)" fill="#e0ddee" stroke="#4f1554" stroke-width="2"><circle cx="25" cy="25" r="25" stroke="none"/><circle cx="25" cy="25" r="24" fill="none"/></g><g transform="translate(1192.5 1786.5)" fill="none" stroke="#7e7eb0" stroke-width="4"><circle cx="18.5" cy="18.5" r="18.5" stroke="none"/><circle cx="18.5" cy="18.5" r="16.5" fill="none"/></g><circle cx="2.5" cy="2.5" r="2.5" transform="translate(1209 1803)" fill="#7e7eb0"/><g transform="translate(1)"><g transform="translate(1210 1804)" fill="#aa93bf"><path d="M 44.5 2.5 L 0.5 2.5 L 0.5 1.272640109062195 L 44.5 0.5087512731552124 L 44.5 2.5 Z" stroke="none"/><path d="M 44 1.017512440681458 L 1 1.764040231704712 L 1 2 L 44 2 L 44 1.017512440681458 M 45 0 L 45 3 L 0 3 L 0 0.78125 L 45 0 Z" stroke="none" fill="#4f1554"/></g><path d="M1242.938,1804.25a39.2,39.2,0,0,1,7.595-5.879,5.844,5.844,0,0,1,2.905-.808c3.594.25,1.125,6.688,1.125,6.688Z" fill="#7e7eb0" stroke="#4f1554" stroke-width="1"/><path d="M1242.937,1797.556a39.2,39.2,0,0,0,7.595,5.879,5.844,5.844,0,0,0,2.905.808c3.594-.25,1.125-6.687,1.125-6.687Z" transform="translate(0 9)" fill="#7e7eb0" stroke="#4f1554" stroke-width="1"/></g><path d="M1211,1807l7.167,18.417h0" transform="translate(1 1)" fill="none" stroke="rgba(126,126,176,0.6)" stroke-linecap="round" stroke-width="3"/></g></svg>