<svg xmlns="http://www.w3.org/2000/svg" width="66.203" height="65" viewBox="0 0 66.203 65"><g transform="translate(-1184.94 -1638)"><g transform="translate(1193 1645)" fill="#e0ddee" stroke="#4a154f" stroke-width="3"><circle cx="25" cy="25" r="25" stroke="none"/><circle cx="25" cy="25" r="23.5" fill="none"/></g><g transform="translate(1200 1651)" fill="#fff" stroke="#fff" stroke-width="1"><circle cx="19" cy="19" r="19" stroke="none"/><circle cx="19" cy="19" r="18.5" fill="none"/></g><line y2="3" transform="translate(1218.5 1649.5)" fill="none" stroke="#4a154f" stroke-linecap="round" stroke-width="1"/><line y2="3" transform="translate(1218.5 1687.5)" fill="none" stroke="#4a154f" stroke-linecap="round" stroke-width="1"/><line x2="3" transform="translate(1235.5 1670.5)" fill="none" stroke="#4a154f" stroke-linecap="round" stroke-width="1"/><line x1="3" transform="translate(1197.5 1670.5)" fill="none" stroke="#4a154f" stroke-linecap="round" stroke-width="1"/><path d="M1207,1657.25c11.25,14.25,11.25,15.25,11.25,15.25h10.5" transform="translate(1 -1)" fill="none" stroke="#4a154f" stroke-linecap="round" stroke-width="1"/><g transform="translate(1186 1638)" fill="none"><path d="M32.565,0A32.5,32.5,0,1,1,.143,32.5,32.539,32.539,0,0,1,32.565,0Z" stroke="none"/><path d="M 32.56527709960938 3 C 28.57261276245117 3 24.70802307128906 3.779365539550781 21.078857421875 5.316455841064453 C 17.57521057128906 6.800388336181641 14.43074417114258 8.926544189453125 11.73281097412109 11.63587951660156 C 9.036865234375 14.34321212768555 6.921146392822266 17.49772262573242 5.444412231445313 21.01177597045898 C 3.917190551757813 24.64599990844727 3.142822265625 28.51118850708008 3.142822265625 32.5 C 3.142822265625 36.48881149291992 3.917190551757813 40.35400009155273 5.444412231445313 43.98822021484375 C 6.921146392822266 47.50227737426758 9.036865234375 50.65678787231445 11.73281097412109 53.36412048339844 C 14.43074417114258 56.07345581054688 17.57521057128906 58.19961166381836 21.078857421875 59.68354415893555 C 24.70802307128906 61.22063446044922 28.57261276245117 62 32.56527709960938 62 C 36.5604248046875 62 40.43441009521484 61.22010040283203 44.07963562011719 59.68197631835938 C 47.60154724121094 58.19587707519531 50.76504516601563 56.06790161132813 53.4822883605957 53.35712432861328 C 56.19903564453125 50.64684295654297 58.33158874511719 47.49173355102539 59.82070159912109 43.97944641113281 C 61.36154556274414 40.34515380859375 62.142822265625 36.48291015625 62.142822265625 32.5 C 62.142822265625 28.51708984375 61.36154556274414 24.65484619140625 59.82070159912109 21.02055740356445 C 58.33158874511719 17.50826644897461 56.19903564453125 14.35315704345703 53.4822883605957 11.64287948608398 C 50.76504516601563 8.932098388671875 47.60154724121094 6.804122924804688 44.07963562011719 5.318023681640625 C 40.43441009521484 3.779899597167969 36.5604248046875 3 32.56527709960938 3 M 32.56527709960938 0 C 50.55735778808594 0 65.142822265625 14.55074310302734 65.142822265625 32.5 C 65.142822265625 50.44925689697266 50.55735778808594 65 32.56527709960938 65 C 14.57320022583008 65 0.142822265625 50.44925689697266 0.142822265625 32.5 C 0.142822265625 14.55074310302734 14.57320022583008 0 32.56527709960938 0 Z" stroke="none" fill="#7b3c9f"/></g><path d="M1200.25,1647.031a31.725,31.725,0,0,0-7.158,8.188c-1.087,1.758-.638,1.406-2.467,6.406-1.147,6.625-1.5,10.25-1.5,10.25" transform="translate(-2)" fill="none" stroke="rgba(255,255,255,0.87)" stroke-linecap="round" stroke-linejoin="bevel" stroke-width="4"/><path d="M1200.25,1642.375l4.313,5.438-5.937.25Z" transform="translate(-2)" fill="#7b3c9f"/></g></svg>