<svg xmlns="http://www.w3.org/2000/svg" width="72" height="52" viewBox="0 0 72 52"><g transform="translate(-1517.5 -1641)"><path d="M58.895,24.1C57.8,14.35,49.234,6.75,38.8,6.75a20.415,20.415,0,0,0-16.627,8.391A9.666,9.666,0,0,0,8.933,23.973,12.715,12.715,0,0,0,0,35.995,12.421,12.421,0,0,0,12.248,48.25h44.5A12.421,12.421,0,0,0,69,35.995,12.257,12.257,0,0,0,58.895,24.1Z" transform="translate(1519 1643.25)" fill="#c1bdd8" stroke="#4a154f" stroke-width="3"/><path d="M50.786,20.757C49.845,12.885,42.455,6.75,33.462,6.75a18.012,18.012,0,0,0-14.338,6.773A9.028,9.028,0,0,0,16,12.968a8.188,8.188,0,0,0-8.3,7.684,10.368,10.368,0,0,0-7.7,9.7c0,5.255,4.729,9.893,10.562,9.893H48.938c5.833,0,10.562-4.638,10.562-9.893C59.488,25.678,55.735,21.553,50.786,20.757Z" transform="translate(1523.667 1649.75)" fill="#d5d1e8"/><path d="M47.656,18.667C46.773,11.969,39.839,6.75,31.4,6.75a17.609,17.609,0,0,0-13.454,5.762,9.255,9.255,0,0,0-2.933-.472c-4.263,0-7.719,3.064-7.785,6.537C2.878,19.709,0,23.182,0,26.834,0,31.3,4.437,35.25,9.911,35.25H45.923c5.473,0,9.911-3.945,9.911-8.416C55.822,22.853,52.3,19.343,47.656,18.667Z" transform="translate(1525.5 1654.75)" fill="#e0ddee"/><ellipse cx="2.5" cy="2" rx="2.5" ry="2" transform="matrix(-0.914, 0.407, -0.407, -0.914, 1541.597, 1672.81)" fill="#fff"/><ellipse cx="3.5" cy="3" rx="3.5" ry="3" transform="matrix(-0.035, 0.999, -0.999, -0.035, 1535.585, 1678.606)" fill="#fff"/><path d="M18,3A10.492,10.492,0,0,0,7.5,13.5C7.5,21.375,18,33,18,33S28.5,21.375,28.5,13.5A10.492,10.492,0,0,0,18,3Zm0,14.25a3.75,3.75,0,1,1,3.75-3.75A3.751,3.751,0,0,1,18,17.25Z" transform="translate(1559.5 1639)" fill="#7e7eb0" stroke="#4a154f" stroke-width="2"/></g></svg>