<svg xmlns="http://www.w3.org/2000/svg" width="71.511" height="60.52" viewBox="0 0 71.511 60.52"><g transform="translate(-1530 -1779.48)"><g transform="translate(1530 1785)" fill="#c2bbda" stroke="#4a154f" stroke-width="3"><rect width="65" height="55" rx="5" stroke="none"/><rect x="1.5" y="1.5" width="62" height="52" rx="3.5" fill="none"/></g><rect width="49" height="47" rx="3" transform="translate(1533 1790)" fill="#e0ddee"/><line x2="61" transform="translate(1532.5 1799.5)" fill="none" stroke="#4a154f" stroke-width="2"/><circle cx="2" cy="2" r="2" transform="translate(1536 1791)" fill="#4a154f"/><circle cx="2" cy="2" r="2" transform="translate(1542 1791)" fill="#4a154f"/><circle cx="2" cy="2" r="2" transform="translate(1548 1791)" fill="#4a154f"/><g transform="translate(1537 1803)" fill="#fff" stroke="#4a154f" stroke-width="1.5"><rect width="11" height="9" rx="1" stroke="none"/><rect x="0.75" y="0.75" width="9.5" height="7.5" rx="0.25" fill="none"/></g><g transform="translate(0 -1)"><line x2="13" transform="translate(1551.5 1805.5)" fill="none" stroke="#4a154f" stroke-linecap="round" stroke-width="1.5"/><line x2="18" transform="translate(1551.5 1808.5)" fill="none" stroke="#4a154f" stroke-linecap="round" stroke-width="1.5"/><line x2="2" transform="translate(1551.5 1811.5)" fill="none" stroke="#4a154f" stroke-linecap="round" stroke-width="1.5"/><line x2="2" transform="translate(1557.5 1811.5)" fill="none" stroke="#4a154f" stroke-linecap="round" stroke-width="1.5"/><line x2="2" transform="translate(1573.5 1808.5)" fill="none" stroke="#4a154f" stroke-linecap="round" stroke-width="1.5"/></g><g transform="translate(0 11)"><g transform="translate(1537 1803)" fill="#fff" stroke="#4a154f" stroke-width="1.5"><rect width="11" height="9" rx="1" stroke="none"/><rect x="0.75" y="0.75" width="9.5" height="7.5" rx="0.25" fill="none"/></g><g transform="translate(0 -1)"><line x2="13" transform="translate(1551.5 1805.5)" fill="none" stroke="#4a154f" stroke-linecap="round" stroke-width="1.5"/><line x2="18" transform="translate(1551.5 1808.5)" fill="none" stroke="#4a154f" stroke-linecap="round" stroke-width="1.5"/><line x2="2" transform="translate(1551.5 1811.5)" fill="none" stroke="#4a154f" stroke-linecap="round" stroke-width="1.5"/><line x2="2" transform="translate(1557.5 1811.5)" fill="none" stroke="#4a154f" stroke-linecap="round" stroke-width="1.5"/><line x2="2" transform="translate(1573.5 1808.5)" fill="none" stroke="#4a154f" stroke-linecap="round" stroke-width="1.5"/></g></g><g transform="translate(0 22)"><g transform="translate(1537 1803)" fill="#fff" stroke="#4a154f" stroke-width="1.5"><rect width="11" height="9" rx="1" stroke="none"/><rect x="0.75" y="0.75" width="9.5" height="7.5" rx="0.25" fill="none"/></g><g transform="translate(0 -1)"><line x2="13" transform="translate(1551.5 1805.5)" fill="none" stroke="#4a154f" stroke-linecap="round" stroke-width="1.5"/><line x2="18" transform="translate(1551.5 1808.5)" fill="none" stroke="#4a154f" stroke-linecap="round" stroke-width="1.5"/><line x2="2" transform="translate(1551.5 1811.5)" fill="none" stroke="#4a154f" stroke-linecap="round" stroke-width="1.5"/><line x2="2" transform="translate(1557.5 1811.5)" fill="none" stroke="#4a154f" stroke-linecap="round" stroke-width="1.5"/><line x2="2" transform="translate(1573.5 1808.5)" fill="none" stroke="#4a154f" stroke-linecap="round" stroke-width="1.5"/></g></g><circle cx="7.5" cy="7.5" r="7.5" transform="translate(1580 1785)" fill="#fff"/><path d="M6.829,25.5c-.611-.611-.293-.439-1.766-.833a5.073,5.073,0,0,1-1.788-.937L.084,31.549A1.125,1.125,0,0,0,1.169,33.1l3.7-.141,2.548,2.692A1.125,1.125,0,0,0,9.281,35.3l3.66-8.973A5.046,5.046,0,0,1,6.829,25.5Zm20.087,6.052-3.19-7.822a5.062,5.062,0,0,1-1.788.937c-1.481.4-1.157.224-1.766.833a5.047,5.047,0,0,1-6.112.829l3.66,8.973a1.125,1.125,0,0,0,1.858.349l2.549-2.692,3.7.141a1.125,1.125,0,0,0,1.085-1.549Zm-8.423-7.643c1.074-1.093,1.2-1,2.727-1.416a2.857,2.857,0,0,0,2-2.038c.526-2,.39-1.756,1.825-3.217a2.917,2.917,0,0,0,.733-2.783c-.525-2-.526-1.717,0-3.715a2.917,2.917,0,0,0-.733-2.783c-1.435-1.461-1.3-1.221-1.825-3.217a2.857,2.857,0,0,0-2-2.038c-1.96-.535-1.724-.4-3.161-1.857A2.8,2.8,0,0,0,15.325.1c-1.96.534-1.686.535-3.649,0A2.8,2.8,0,0,0,8.941.844C7.506,2.3,7.742,2.166,5.781,2.7a2.857,2.857,0,0,0-2,2.038c-.525,2-.39,1.756-1.825,3.217a2.915,2.915,0,0,0-.733,2.783c.525,1.994.526,1.716,0,3.714a2.919,2.919,0,0,0,.733,2.784c1.435,1.461,1.3,1.22,1.825,3.217a2.857,2.857,0,0,0,2,2.038c1.574.429,1.691.361,2.727,1.416a2.794,2.794,0,0,0,3.5.409,2.79,2.79,0,0,1,2.99,0A2.793,2.793,0,0,0,18.492,23.906ZM6.867,12.372A6.634,6.634,0,1,1,13.5,19.124a6.693,6.693,0,0,1-6.633-6.751Z" transform="translate(1574 1780.001)" fill="#7e7eb0" stroke="#4a154f" stroke-width="1"/></g></svg>