<svg xmlns="http://www.w3.org/2000/svg" width="63.484" height="65.127" viewBox="0 0 63.484 65.127"><g transform="translate(-485.726 -737.937)"><path d="M0,0,39.667.667c2.417,2.583,5.589,5.4,7.667,7.583L47.486,65H0Z" transform="translate(486 738)" fill="#d5d1e8"/><path d="M55.875,7.938h3.25l1.188,4.9L61.5,18.784,60.313,49.5H54.125L53.75,16.858l.375-3.358Z" transform="translate(487 739)" fill="#7e7eb0"/><rect width="10" height="5" transform="translate(517 785)" fill="#fff"/><g transform="translate(483 738)"><path d="M2.79,0V54.6h1.9V1.9H41.585V9.566h7.662V63.1H4.694V56.509H2.79V65H51.151V8.219L42.931,0Zm40.7,3.251L47.9,7.662H43.489Z" fill="#4a154f" stroke="#707070" stroke-width="0.127"/><path d="M62.21,13.418,60.318,11.3v-4.4H54.605v4.4l-1.892,2.115.987,37.03h.905v3.081l2.856,5.713,2.856-5.713V50.448h.905ZM55.555,48.544l-.363-13.616h4.54l-.363,13.616Zm-.414-15.52-.5-18.9,1.346-1.5H58.94l1.346,1.5-.5,18.9ZM56.51,8.811h1.9v1.9h-1.9Zm1.9,44.269-.952,1.9-.952-1.9V50.448h1.9Z" transform="translate(4)" fill="#4a154f"/><path d="M9.179,41.264h1.9v1.9h-1.9Z" fill="#4a154f"/><path d="M12.988,41.264h13.58v1.9H12.988Z" fill="#4a154f"/><path d="M33.251,31.548h11.51v1.9H33.251Z" fill="#4a154f"/><path d="M9.179,31.548H31.346v1.9H9.179Z" fill="#4a154f"/><path d="M9.179,36.406h7.03v1.9H9.179Z" fill="#4a154f"/><path d="M18.114,36.406H44.761v1.9H18.114Z" fill="#4a154f"/><path d="M9.179,26.69h7.03v1.9H9.179Z" fill="#4a154f"/><path d="M18.114,26.69H44.761v1.9H18.114Z" fill="#4a154f"/><path d="M33.251,16.974h11.51v1.9H33.251Z" fill="#4a154f"/><path d="M9.179,16.974H31.346v1.9H9.179Z" fill="#4a154f"/><path d="M31.346,21.832H9.179v1.9H44.761v-1.9H31.346Z" fill="#4a154f"/><path d="M12.988,46.122h13.58v1.9H12.988Z" fill="#4a154f"/><path d="M9.179,46.122h1.9v1.9h-1.9Z" fill="#4a154f"/><path d="M34.99,12.116h9.771v1.9H34.99Z" fill="#4a154f"/><path d="M27.373,12.116h1.9v1.9h-1.9Z" fill="#4a154f"/><path d="M31.181,12.116h1.9v1.9h-1.9Z" fill="#4a154f"/><path d="M56.51,15.475h1.9v8.281h-1.9Z" transform="translate(4)" fill="#fff"/><path d="M56.51,25.661h1.9v1.9h-1.9Z" transform="translate(4)" fill="#fff"/><path d="M12.311,3.809h1.9v1.9h-1.9Z" fill="#fff"/><path d="M6.6,10.474H8.5V5.713h1.9v-1.9H6.6Z" fill="#fff"/><path d="M16.12,3.809h1.9v1.9h-1.9Z" fill="#fff"/><path d="M36.869,59.287h1.9v1.9h-1.9Z" fill="#fff"/><path d="M47.342,57.383h-1.9v1.9H40.677v1.9h6.665Z" fill="#fff"/><path d="M44.761,46.122H33.335v6.665H44.761Zm-1.9,4.761H35.24V48.026h7.617Z" fill="#4a154f"/></g></g></svg>