<svg xmlns="http://www.w3.org/2000/svg" xmlns:xlink="http://www.w3.org/1999/xlink" width="65" height="60" viewBox="0 0 65 60"><defs><clipPath id="a"><rect width="31" height="39" transform="translate(441 714)" fill="#fff" stroke="#707070" stroke-width="1"/></clipPath></defs><g transform="translate(-462 -743)"><g transform="translate(462 750)" fill="#e0ddee" stroke="#4a154f" stroke-width="2"><rect width="65" height="42" rx="3" stroke="none"/><rect x="1" y="1" width="63" height="40" rx="2" fill="none"/></g><g transform="translate(478 797)" fill="#a2a4cd" stroke="#4a154f" stroke-width="2"><path d="M6,0H27a6,6,0,0,1,6,6V6a0,0,0,0,1,0,0H0A0,0,0,0,1,0,6V6A6,6,0,0,1,6,0Z" stroke="none"/><path d="M4.429,1H28.571A3.429,3.429,0,0,1,32,4.429v0A.571.571,0,0,1,31.429,5H1.571A.571.571,0,0,1,1,4.429v0A3.429,3.429,0,0,1,4.429,1Z" fill="none"/></g><g transform="translate(490 790)" fill="#a2a4cd" stroke="#4a154f" stroke-width="2"><rect width="10" height="9" stroke="none"/><rect x="1" y="1" width="8" height="7" fill="none"/></g><g transform="translate(462 784)" fill="#a2a4cd" stroke="#4a154f" stroke-width="2"><path d="M0,0H65a0,0,0,0,1,0,0V5a3,3,0,0,1-3,3H2A2,2,0,0,1,0,6V0A0,0,0,0,1,0,0Z" stroke="none"/><path d="M2,1H63a1,1,0,0,1,1,1V5a2,2,0,0,1-2,2H2A1,1,0,0,1,1,6V2A1,1,0,0,1,2,1Z" fill="none"/></g><line y2="22" transform="translate(469.5 756.5)" fill="none" stroke="#fff" stroke-linecap="round" stroke-width="1"/><line y2="7" transform="translate(466.5 758.5)" fill="none" stroke="#fff" stroke-linecap="round" stroke-width="1"/><g transform="translate(494 787)" fill="#fff"><path d="M 1 1.5 C 0.7243000268936157 1.5 0.5 1.275699973106384 0.5 1 C 0.5 0.7243000268936157 0.7243000268936157 0.5 1 0.5 C 1.275699973106384 0.5 1.5 0.7243000268936157 1.5 1 C 1.5 1.275699973106384 1.275699973106384 1.5 1 1.5 Z" stroke="none"/><path d="M 1 0 C 1.552279949188232 0 2 0.4477200508117676 2 1 C 2 1.552279949188232 1.552279949188232 2 1 2 C 0.4477200508117676 2 0 1.552279949188232 0 1 C 0 0.4477200508117676 0.4477200508117676 0 1 0 Z" stroke="none" fill="#e0ddee"/></g><g transform="translate(38 29)" clip-path="url(#a)"><g transform="translate(151.114 272.102)"><path d="M0,0,23.754.4C25.2,1.946,27.1,3.633,28.345,4.94l.091,33.984H0Z" transform="translate(291.031 441.937)" fill="#fff"/><rect width="5.988" height="2.994" transform="translate(309.595 470.082)" fill="#fff"/><g transform="translate(289.235 441.937)"><path d="M1.671,0V32.7H2.809V1.138H24.9V5.728h4.588V37.786H2.811V33.839H1.671v5.085h28.96v-34L25.708,0ZM26.043,1.947l2.641,2.641H26.043Z" fill="#4a154f" stroke="#707070" stroke-width="0.076"/><path d="M5.5,24.71H6.634v1.138H5.5Z" fill="#4a154f"/><path d="M7.778,24.71H15.91v1.138H7.778Z" fill="#4a154f"/><path d="M19.912,18.892H26.8V20.03H19.912Z" fill="#4a154f"/><path d="M5.5,18.892H18.771V20.03H5.5Z" fill="#4a154f"/><path d="M5.5,21.8h4.21v1.138H5.5Z" fill="#4a154f"/><path d="M10.847,21.8H26.8v1.138H10.847Z" fill="#4a154f"/><path d="M5.5,15.983h4.21v1.138H5.5Z" fill="#4a154f"/><path d="M10.847,15.983H26.8v1.138H10.847Z" fill="#4a154f"/><path d="M19.912,10.165H26.8V11.3H19.912Z" fill="#4a154f"/><path d="M5.5,10.165H18.771V11.3H5.5Z" fill="#4a154f"/><path d="M18.771,13.074H5.5v1.138H26.8V13.074Z" fill="#4a154f"/><path d="M7.778,27.619H15.91v1.138H7.778Z" fill="#4a154f"/><path d="M5.5,27.619H6.634v1.138H5.5Z" fill="#4a154f"/><path d="M20.953,7.255H26.8V8.393H20.953Z" fill="#4a154f"/><path d="M16.392,7.255H17.53V8.393H16.392Z" fill="#4a154f"/><path d="M18.672,7.255H19.81V8.393H18.672Z" fill="#4a154f"/><path d="M7.372,2.281H8.51V3.419H7.372Z" fill="#fff"/><path d="M3.952,6.272H5.09V3.421H6.228V2.283H3.952Z" fill="#fff"/><path d="M9.653,2.281h1.138V3.419H9.653Z" fill="#fff"/><path d="M22.078,35.5h1.138v1.138H22.078Z" fill="#fff"/><path d="M28.35,34.363H27.212V35.5H24.359v1.138H28.35Z" fill="#fff"/><path d="M26.8,27.619H19.962V31.61H26.8ZM25.666,30.47H21.1V28.759h4.561Z" fill="#4a154f"/></g></g></g></g></svg>