<svg xmlns="http://www.w3.org/2000/svg" width="86.786" height="46.429" viewBox="0 0 86.786 46.429"><g transform="translate(-244.714 -1254)"><path d="M10,0H55A10,10,0,0,1,65,10V23A10,10,0,0,1,55,33H10a26.21,26.21,0,0,0-6.562,1.188,46.179,46.179,0,0,0-7.224,3.241L.5,27.75S0,23.837,0,23V10A10,10,0,0,1,10,0Z" transform="translate(248.5 1263)" fill="#aa93bf"/><path d="M307.286,1266.143c-2.042,0,1.238,17.488-4.429,20.571s-26.042-.381-40,1.619S248.909,1297.439,249,1298c.451.312,3.68-2.473,7.667-2.5,13.725-.09,44.079-.9,48.666-1.167,5.792-.333,5.917-4.292,7.167-6,.924-1.262.517-12.3-.75-17.917C311.393,1268.825,307.819,1266.143,307.286,1266.143Z" fill="#9d81b4"/><g transform="translate(248.5 1263)" fill="none" stroke-linecap="round" stroke-linejoin="bevel"><path d="M10,0H55A10,10,0,0,1,65,10V23A10,10,0,0,1,55,33H10a26.21,26.21,0,0,0-6.562,1.188,46.179,46.179,0,0,0-7.224,3.241L.5,27.75S0,23.837,0,23V10A10,10,0,0,1,10,0Z" stroke="none"/><path d="M 10 1.999996185302734 C 5.588790893554688 1.999996185302734 2 5.588783264160156 2 9.999994277954102 L 2 22.9999942779541 C 2 23.43797302246094 2.251167297363281 25.67503929138184 2.483879089355469 27.49652862548828 L 2.328712463378906 28.55982780456543 L 0.2546272277832031 33.24334716796875 C 1.089431762695313 32.89408111572266 1.964389801025391 32.56005096435547 2.825820922851563 32.28332901000977 C 6.503299713134766 31.10199356079102 9.809501647949219 31.00423812866211 9.948444366455078 31.00065994262695 L 10 30.9999942779541 L 55 30.9999942779541 C 59.41121292114258 30.9999942779541 63 27.41120529174805 63 22.9999942779541 L 63 9.999994277954102 C 63 5.588783264160156 59.41121292114258 1.999996185302734 55 1.999996185302734 L 10 1.999996185302734 M 10 -3.814697265625e-06 L 55 -3.814697265625e-06 C 60.52284622192383 -3.814697265625e-06 65 4.477149963378906 65 9.999994277954102 L 65 22.9999942779541 C 65 28.52285003662109 60.52284622192383 32.99999237060547 55 32.99999237060547 L 10 32.99999237060547 C 10 32.99999237060547 6.884033203125 33.08034896850586 3.4375 34.18749618530273 C -0.009033203125 35.29465103149414 -3.7861328125 37.42858505249023 -3.7861328125 37.42858505249023 L 0.5 27.7499942779541 C 0.5 27.7499942779541 0 23.83678436279297 0 22.9999942779541 L 0 9.999994277954102 C 0 4.477149963378906 4.477157592773438 -3.814697265625e-06 10 -3.814697265625e-06 Z" stroke="none" fill="#4e1650"/></g><g transform="translate(4)"><circle cx="2.5" cy="2.5" r="2.5" transform="translate(262 1276)" fill="#fff"/><circle cx="2.5" cy="2.5" r="2.5" transform="translate(276 1276)" fill="#fff"/><circle cx="2.5" cy="2.5" r="2.5" transform="translate(290 1276)" fill="#fff"/></g><path d="M263.188,1267.488s-5.773-.861-8.083,1.238-1.65,6.837-1.65,6.837" transform="translate(1 1)" fill="none" stroke="#fff" stroke-linecap="round" stroke-width="2"/><g transform="translate(262.714 1254)"><path d="M51.214,0h-45a10,10,0,0,0-10,10V23a10,10,0,0,0,10,10h45a26.21,26.21,0,0,1,6.563,1.188A46.179,46.179,0,0,1,65,37.429L60.714,27.75s.5-3.913.5-4.75V10A10,10,0,0,0,51.214,0Z" transform="translate(3.786)" fill="#a2a4cd"/><path d="M254.7,1266.143c2.042,0-1.238,17.488,4.429,20.571s26.042-.381,40,1.619,13.948,9.105,13.857,9.667c-.451.312-3.68-2.473-7.667-2.5-13.725-.09-44.079-.9-48.666-1.167-5.792-.333-5.917-4.292-7.167-6-.924-1.262-.517-12.3.75-17.917C250.6,1268.825,254.171,1266.143,254.7,1266.143Z" transform="translate(-248.49 -1263)" fill="#7e7eb0"/><g transform="translate(3.786)" fill="none" stroke-linecap="round" stroke-linejoin="bevel"><path d="M51.214,0h-45a10,10,0,0,0-10,10V23a10,10,0,0,0,10,10h45a26.21,26.21,0,0,1,6.563,1.188A46.179,46.179,0,0,1,65,37.429L60.714,27.75s.5-3.913.5-4.75V10A10,10,0,0,0,51.214,0Z" stroke="none"/><path d="M 6.2138671875 1.999996185302734 C 1.802654266357422 1.999996185302734 -1.7861328125 5.588783264160156 -1.7861328125 9.999994277954102 L -1.7861328125 22.9999942779541 C -1.7861328125 27.41120529174805 1.802654266357422 30.9999942779541 6.2138671875 30.9999942779541 L 51.2138671875 30.9999942779541 L 51.26542282104492 31.00065994262695 C 51.40436553955078 31.00423812866211 54.71056747436523 31.10199356079102 58.38805389404297 32.28332901000977 C 59.24948501586914 32.56005096435547 60.12443542480469 32.89407730102539 60.95923614501953 33.24334716796875 L 58.88515472412109 28.55982780456543 L 58.72998809814453 27.49652862548828 C 58.96269989013672 25.67503929138184 59.2138671875 23.43797302246094 59.2138671875 22.9999942779541 L 59.2138671875 9.999994277954102 C 59.2138671875 5.588783264160156 55.62507629394531 1.999996185302734 51.2138671875 1.999996185302734 L 6.2138671875 1.999996185302734 M 6.2138671875 -3.814697265625e-06 L 51.2138671875 -3.814697265625e-06 C 56.73670959472656 -3.814697265625e-06 61.2138671875 4.477149963378906 61.2138671875 9.999994277954102 L 61.2138671875 22.9999942779541 C 61.2138671875 23.83678436279297 60.7138671875 27.7499942779541 60.7138671875 27.7499942779541 L 65 37.42858505249023 C 65 37.42858505249023 61.222900390625 35.29465103149414 57.7763671875 34.18749618530273 C 54.329833984375 33.08034896850586 51.2138671875 32.99999237060547 51.2138671875 32.99999237060547 L 6.2138671875 32.99999237060547 C 0.6910209655761719 32.99999237060547 -3.7861328125 28.52285003662109 -3.7861328125 22.9999942779541 L -3.7861328125 9.999994277954102 C -3.7861328125 4.477149963378906 0.6910209655761719 -3.814697265625e-06 6.2138671875 -3.814697265625e-06 Z" stroke="none" fill="#4e1650"/></g><g transform="translate(14.5 13)"><circle cx="2.5" cy="2.5" r="2.5" transform="translate(28)" fill="#fff"/><circle cx="2.5" cy="2.5" r="2.5" transform="translate(14)" fill="#fff"/><circle cx="2.5" cy="2.5" r="2.5" fill="#fff"/></g><path d="M253.368,1267.488s5.773-.861,8.083,1.238,1.65,6.837,1.65,6.837" transform="translate(-204.055 -1262)" fill="none" stroke="#fff" stroke-linecap="round" stroke-width="2"/></g></g></svg>