<svg xmlns="http://www.w3.org/2000/svg" width="65" height="53" viewBox="0 0 65 53"><g transform="translate(-462 -750)"><g transform="translate(462 750)" fill="#a2a4cd" stroke="#4a154f" stroke-width="2"><rect width="65" height="42" rx="3" stroke="none"/><rect x="1" y="1" width="63" height="40" rx="2" fill="none"/></g><g transform="translate(478 797)" fill="#c2bddb" stroke="#4a154f" stroke-width="2"><path d="M6,0H27a6,6,0,0,1,6,6V6a0,0,0,0,1,0,0H0A0,0,0,0,1,0,6V6A6,6,0,0,1,6,0Z" stroke="none"/><path d="M4.429,1H28.571A3.429,3.429,0,0,1,32,4.429v0A.571.571,0,0,1,31.429,5H1.571A.571.571,0,0,1,1,4.429v0A3.429,3.429,0,0,1,4.429,1Z" fill="none"/></g><g transform="translate(490 790)" fill="#c5bada" stroke="#4a154f" stroke-width="2"><rect width="10" height="9" stroke="none"/><rect x="1" y="1" width="8" height="7" fill="none"/></g><g transform="translate(462 784)" fill="#c2bbda" stroke="#4a154f" stroke-width="2"><path d="M0,0H65a0,0,0,0,1,0,0V5a3,3,0,0,1-3,3H2A2,2,0,0,1,0,6V0A0,0,0,0,1,0,0Z" stroke="none"/><path d="M2,1H63a1,1,0,0,1,1,1V5a2,2,0,0,1-2,2H2A1,1,0,0,1,1,6V2A1,1,0,0,1,2,1Z" fill="none"/></g><line y2="22" transform="translate(469.5 756.5)" fill="none" stroke="#fff" stroke-linecap="round" stroke-width="1"/><line y2="7" transform="translate(466.5 758.5)" fill="none" stroke="#fff" stroke-linecap="round" stroke-width="1"/><g transform="translate(494 787)" fill="#fff"><path d="M 1 1.5 C 0.7243000268936157 1.5 0.5 1.275699973106384 0.5 1 C 0.5 0.7243000268936157 0.7243000268936157 0.5 1 0.5 C 1.275699973106384 0.5 1.5 0.7243000268936157 1.5 1 C 1.5 1.275699973106384 1.275699973106384 1.5 1 1.5 Z" stroke="none"/><path d="M 1 0 C 1.552279949188232 0 2 0.4477200508117676 2 1 C 2 1.552279949188232 1.552279949188232 2 1 2 C 0.4477200508117676 2 0 1.552279949188232 0 1 C 0 0.4477200508117676 0.4477200508117676 0 1 0 Z" stroke="none" fill="#7e7eb0"/></g></g></svg>