<svg xmlns="http://www.w3.org/2000/svg" width="67" height="58" viewBox="0 0 67 58"><g transform="translate(0 -0.212)"><rect width="67" height="49" rx="2" transform="translate(0 9.212)" fill="#e0ddee"/><g transform="translate(0 9.212)" fill="none" stroke="#441a4f" stroke-width="1"><rect width="67" height="49" rx="2" stroke="none"/><rect x="0.5" y="0.5" width="66" height="48" rx="1.5" fill="none"/></g><g transform="translate(0 9.121)" fill="#7e7eb0"><path d="M 65 9.5 L 2 9.5 C 1.172899961471558 9.5 0.5 8.827099800109863 0.5 8 L 0.5 2 C 0.5 1.172899961471558 1.172899961471558 0.5 2 0.5 L 65 0.5 C 65.82710266113281 0.5 66.5 1.172899961471558 66.5 2 L 66.5 8 C 66.5 8.827099800109863 65.82710266113281 9.5 65 9.5 Z" stroke="none"/><path d="M 2 1 C 1.448600769042969 1 1 1.448599815368652 1 2 L 1 8 C 1 8.551400184631348 1.448600769042969 9 2 9 L 65 9 C 65.55139923095703 9 66 8.551400184631348 66 8 L 66 2 C 66 1.448599815368652 65.55139923095703 1 65 1 L 2 1 M 2 0 L 65 0 C 66.10456848144531 0 67 0.8954296112060547 67 2 L 67 8 C 67 9.104570388793945 66.10456848144531 10 65 10 L 2 10 C 0.8954315185546875 10 0 9.104570388793945 0 8 L 0 2 C 0 0.8954296112060547 0.8954315185546875 0 2 0 Z" stroke="none" fill="#441a4f"/></g><g transform="translate(12 26)"><g transform="translate(0 0.212)" fill="#a2a4cd" stroke="#441a4f" stroke-width="1"><rect width="43" height="8" rx="4" stroke="none"/><rect x="0.5" y="0.5" width="42" height="7" rx="3.5" fill="none"/></g><path d="M4.253,2.83,3.028,2.167,4.253,1.5a.131.131,0,0,0,.053-.185L4.017.849A.15.15,0,0,0,3.82.8L2.6,1.463V.135A.14.14,0,0,0,2.451,0H1.874A.14.14,0,0,0,1.73.135V1.463L.505.8a.15.15,0,0,0-.2.05L.02,1.318A.131.131,0,0,0,.072,1.5L1.3,2.167.072,2.83a.131.131,0,0,0-.053.185l.289.469a.15.15,0,0,0,.2.05L1.73,2.87V4.2a.14.14,0,0,0,.144.135h.577A.14.14,0,0,0,2.6,4.2V2.87l1.225.664a.149.149,0,0,0,.2-.05l.289-.469A.131.131,0,0,0,4.253,2.83Z" transform="translate(3.675 2.121)" fill="#fff"/><path d="M4.253,2.83,3.028,2.167,4.253,1.5a.131.131,0,0,0,.053-.185L4.017.849A.15.15,0,0,0,3.82.8L2.6,1.463V.135A.14.14,0,0,0,2.451,0H1.874A.14.14,0,0,0,1.73.135V1.463L.505.8a.15.15,0,0,0-.2.05L.02,1.318A.131.131,0,0,0,.072,1.5L1.3,2.167.072,2.83a.131.131,0,0,0-.053.185l.289.469a.15.15,0,0,0,.2.05L1.73,2.87V4.2a.14.14,0,0,0,.144.135h.577A.14.14,0,0,0,2.6,4.2V2.87l1.225.664a.149.149,0,0,0,.2-.05l.289-.469A.131.131,0,0,0,4.253,2.83Z" transform="translate(9.675 2.121)" fill="#fff"/><path d="M4.253,2.83,3.028,2.167,4.253,1.5a.131.131,0,0,0,.053-.185L4.017.849A.15.15,0,0,0,3.82.8L2.6,1.463V.135A.14.14,0,0,0,2.451,0H1.874A.14.14,0,0,0,1.73.135V1.463L.505.8a.15.15,0,0,0-.2.05L.02,1.318A.131.131,0,0,0,.072,1.5L1.3,2.167.072,2.83a.131.131,0,0,0-.053.185l.289.469a.15.15,0,0,0,.2.05L1.73,2.87V4.2a.14.14,0,0,0,.144.135h.577A.14.14,0,0,0,2.6,4.2V2.87l1.225.664a.149.149,0,0,0,.2-.05l.289-.469A.131.131,0,0,0,4.253,2.83Z" transform="translate(15.675 2.121)" fill="#fff"/><path d="M4.253,2.83,3.028,2.167,4.253,1.5a.131.131,0,0,0,.053-.185L4.017.849A.15.15,0,0,0,3.82.8L2.6,1.463V.135A.14.14,0,0,0,2.451,0H1.874A.14.14,0,0,0,1.73.135V1.463L.505.8a.15.15,0,0,0-.2.05L.02,1.318A.131.131,0,0,0,.072,1.5L1.3,2.167.072,2.83a.131.131,0,0,0-.053.185l.289.469a.15.15,0,0,0,.2.05L1.73,2.87V4.2a.14.14,0,0,0,.144.135h.577A.14.14,0,0,0,2.6,4.2V2.87l1.225.664a.149.149,0,0,0,.2-.05l.289-.469A.131.131,0,0,0,4.253,2.83Z" transform="translate(21.675 2.121)" fill="#fff"/><path d="M4.253,2.83,3.028,2.167,4.253,1.5a.131.131,0,0,0,.053-.185L4.017.849A.15.15,0,0,0,3.82.8L2.6,1.463V.135A.14.14,0,0,0,2.451,0H1.874A.14.14,0,0,0,1.73.135V1.463L.505.8a.15.15,0,0,0-.2.05L.02,1.318A.131.131,0,0,0,.072,1.5L1.3,2.167.072,2.83a.131.131,0,0,0-.053.185l.289.469a.15.15,0,0,0,.2.05L1.73,2.87V4.2a.14.14,0,0,0,.144.135h.577A.14.14,0,0,0,2.6,4.2V2.87l1.225.664a.149.149,0,0,0,.2-.05l.289-.469A.131.131,0,0,0,4.253,2.83Z" transform="translate(27.675 2.121)" fill="#fff"/></g><g transform="translate(12 37)"><g transform="translate(0 0.212)" fill="#a2a4cd" stroke="#441a4f" stroke-width="1"><rect width="43" height="8" rx="4" stroke="none"/><rect x="0.5" y="0.5" width="42" height="7" rx="3.5" fill="none"/></g><path d="M4.253,2.83,3.028,2.167,4.253,1.5a.131.131,0,0,0,.053-.185L4.017.849A.15.15,0,0,0,3.82.8L2.6,1.463V.135A.14.14,0,0,0,2.451,0H1.874A.14.14,0,0,0,1.73.135V1.463L.505.8a.15.15,0,0,0-.2.05L.02,1.318A.131.131,0,0,0,.072,1.5L1.3,2.167.072,2.83a.131.131,0,0,0-.053.185l.289.469a.15.15,0,0,0,.2.05L1.73,2.87V4.2a.14.14,0,0,0,.144.135h.577A.14.14,0,0,0,2.6,4.2V2.87l1.225.664a.149.149,0,0,0,.2-.05l.289-.469A.131.131,0,0,0,4.253,2.83Z" transform="translate(3.675 2.121)" fill="#fff"/><path d="M4.253,2.83,3.028,2.167,4.253,1.5a.131.131,0,0,0,.053-.185L4.017.849A.15.15,0,0,0,3.82.8L2.6,1.463V.135A.14.14,0,0,0,2.451,0H1.874A.14.14,0,0,0,1.73.135V1.463L.505.8a.15.15,0,0,0-.2.05L.02,1.318A.131.131,0,0,0,.072,1.5L1.3,2.167.072,2.83a.131.131,0,0,0-.053.185l.289.469a.15.15,0,0,0,.2.05L1.73,2.87V4.2a.14.14,0,0,0,.144.135h.577A.14.14,0,0,0,2.6,4.2V2.87l1.225.664a.149.149,0,0,0,.2-.05l.289-.469A.131.131,0,0,0,4.253,2.83Z" transform="translate(9.675 2.121)" fill="#fff"/><path d="M4.253,2.83,3.028,2.167,4.253,1.5a.131.131,0,0,0,.053-.185L4.017.849A.15.15,0,0,0,3.82.8L2.6,1.463V.135A.14.14,0,0,0,2.451,0H1.874A.14.14,0,0,0,1.73.135V1.463L.505.8a.15.15,0,0,0-.2.05L.02,1.318A.131.131,0,0,0,.072,1.5L1.3,2.167.072,2.83a.131.131,0,0,0-.053.185l.289.469a.15.15,0,0,0,.2.05L1.73,2.87V4.2a.14.14,0,0,0,.144.135h.577A.14.14,0,0,0,2.6,4.2V2.87l1.225.664a.149.149,0,0,0,.2-.05l.289-.469A.131.131,0,0,0,4.253,2.83Z" transform="translate(15.675 2.121)" fill="#fff"/><path d="M4.253,2.83,3.028,2.167,4.253,1.5a.131.131,0,0,0,.053-.185L4.017.849A.15.15,0,0,0,3.82.8L2.6,1.463V.135A.14.14,0,0,0,2.451,0H1.874A.14.14,0,0,0,1.73.135V1.463L.505.8a.15.15,0,0,0-.2.05L.02,1.318A.131.131,0,0,0,.072,1.5L1.3,2.167.072,2.83a.131.131,0,0,0-.053.185l.289.469a.15.15,0,0,0,.2.05L1.73,2.87V4.2a.14.14,0,0,0,.144.135h.577A.14.14,0,0,0,2.6,4.2V2.87l1.225.664a.149.149,0,0,0,.2-.05l.289-.469A.131.131,0,0,0,4.253,2.83Z" transform="translate(21.675 2.121)" fill="#fff"/><path d="M4.253,2.83,3.028,2.167,4.253,1.5a.131.131,0,0,0,.053-.185L4.017.849A.15.15,0,0,0,3.82.8L2.6,1.463V.135A.14.14,0,0,0,2.451,0H1.874A.14.14,0,0,0,1.73.135V1.463L.505.8a.15.15,0,0,0-.2.05L.02,1.318A.131.131,0,0,0,.072,1.5L1.3,2.167.072,2.83a.131.131,0,0,0-.053.185l.289.469a.15.15,0,0,0,.2.05L1.73,2.87V4.2a.14.14,0,0,0,.144.135h.577A.14.14,0,0,0,2.6,4.2V2.87l1.225.664a.149.149,0,0,0,.2-.05l.289-.469A.131.131,0,0,0,4.253,2.83Z" transform="translate(27.675 2.121)" fill="#fff"/></g><g transform="translate(22 0.212)" fill="#f1f4f8" stroke="#441a4f" stroke-width="1"><circle cx="12" cy="12" r="12" stroke="none"/><circle cx="12" cy="12" r="11.5" fill="none"/></g><g transform="translate(28 4.668)"><g transform="translate(0 5.544)" fill="#aa93bf" stroke="#a28bb8" stroke-width="1"><rect width="12" height="8" rx="1" stroke="none"/><rect x="0.5" y="0.5" width="11" height="7" rx="0.5" fill="none"/></g><path d="M6744.875,1191.578s-.359-6.016,3.891-6.031,4.031,6.031,4.031,6.031" transform="translate(-6743 -1185.547)" fill="none" stroke="#a28bb8" stroke-width="1"/></g><g transform="translate(32.5 12.121)" fill="#48194c" stroke="#48194c" stroke-width="1"><circle cx="1.5" cy="1.5" r="1.5" stroke="none"/><circle cx="1.5" cy="1.5" r="1" fill="none"/></g><g transform="translate(33.5 14.121)" fill="#fff"><path d="M 0.6497741937637329 1.5 L 0.372934103012085 1.5 L 0.4588740766048431 0.5 L 0.5482141971588135 0.5 L 0.6497741937637329 1.5 Z" stroke="none"/><path d="M -5.006790161132813e-06 0 L 0.9999949932098389 0 L 1.203125 2 L -0.171875 2 L -5.006790161132813e-06 0 Z" stroke="none" fill="#48194c"/></g></g></svg>