<svg xmlns="http://www.w3.org/2000/svg" width="32" height="32" viewBox="0 0 32 32"><g transform="translate(-66.667 -120)"><g transform="translate(66.667 120)" fill="#fff" stroke="#8c98db" stroke-linejoin="bevel" stroke-width="3"><rect width="32" height="32" stroke="none"/><rect x="1.5" y="1.5" width="29" height="29" fill="none"/></g><g transform="translate(-51.833 211.167) rotate(-90)"><g transform="translate(79.667 132)" fill="#8c98db" stroke="#8c98db" stroke-width="2"><rect width="4" height="11" rx="1" stroke="none"/><rect x="1" y="1" width="2" height="9" fill="none"/></g><g transform="translate(79.667 126)" fill="#8c98db" stroke="#8c98db" stroke-width="2"><rect width="4" height="4" rx="1" stroke="none"/><rect x="1" y="1" width="2" height="2" fill="none"/></g></g><g transform="translate(-51.833 218.167) rotate(-90)"><g transform="translate(79.667 132)" fill="#8c98db" stroke="#8c98db" stroke-width="2"><rect width="4" height="11" rx="1" stroke="none"/><rect x="1" y="1" width="2" height="9" fill="none"/></g><g transform="translate(79.667 126)" fill="#8c98db" stroke="#8c98db" stroke-width="2"><rect width="4" height="4" rx="1" stroke="none"/><rect x="1" y="1" width="2" height="2" fill="none"/></g></g><g transform="translate(-51.833 225.167) rotate(-90)"><g transform="translate(79.667 132)" fill="#8c98db" stroke="#8c98db" stroke-width="2"><rect width="4" height="11" rx="1" stroke="none"/><rect x="1" y="1" width="2" height="9" fill="none"/></g><g transform="translate(79.667 126)" fill="#8c98db" stroke="#8c98db" stroke-width="2"><rect width="4" height="4" rx="1" stroke="none"/><rect x="1" y="1" width="2" height="2" fill="none"/></g></g></g></svg>