<svg xmlns="http://www.w3.org/2000/svg" width="190.759" height="169" viewBox="0 0 190.759 169"><g transform="translate(-1226 -237.333)"><rect width="129" height="169" rx="5" transform="translate(1226 237.333)" fill="#fff"/><path d="M1326,239.619l-27.5,165.214,53.833-2.5,1.667-161Z" fill="#f1f4f8"/><g transform="translate(1226 237.333)" fill="none" stroke="#3b3086" stroke-width="3"><rect width="129" height="169" rx="5" stroke="none"/><rect x="1.5" y="1.5" width="126" height="166" rx="3.5" fill="none"/></g><rect width="86" height="7" rx="2" transform="translate(1248 251.333)" fill="#3b3086"/><rect width="86" height="7" rx="2" transform="translate(1248 315.333)" fill="#8c98db"/><rect width="54" height="7" rx="2" transform="translate(1248 330.333)" fill="#8c98db"/><rect width="34" height="7" rx="2" transform="translate(1248 345.333)" fill="#f39cba"/><rect width="46" height="7" rx="2" transform="translate(1248 360.333)" fill="#f39cba"/><g transform="translate(1273.45 268.833)"><path d="M17.986,3.375A14.625,14.625,0,1,0,32.625,18,14.62,14.62,0,0,0,17.986,3.375ZM18,29.7A11.7,11.7,0,1,1,29.7,18,11.7,11.7,0,0,1,18,29.7Z" fill="#3b3086"/><path d="M18.731,10.688H16.538v8.775l7.678,4.605,1.1-1.8-6.581-3.9Z" fill="#8c98db"/></g><g transform="translate(191.705 1252.497) rotate(-51)"><rect width="100" height="14" transform="translate(1410 325)" fill="#f39cba"/><rect width="100" height="5" transform="translate(1410 334)" fill="#e6769d"/><g transform="translate(1410 325)" fill="none" stroke="#3b3086" stroke-width="2"><rect width="100" height="14" stroke="none"/><rect x="1" y="1" width="98" height="12" fill="none"/></g><path d="M2,0h8a7,7,0,0,1,7,7V7a7,7,0,0,1-7,7H2a2,2,0,0,1-2-2V2A2,2,0,0,1,2,0Z" transform="translate(1511 325)" fill="#f39cba"/><path d="M1526.438,331.75c-2.844,2.594-2.625,3.063-13.437,2.875a3.653,3.653,0,0,0-.687,3.125h10.625S1527,335,1526.75,333,1529.281,329.156,1526.438,331.75Z" fill="#e6769d"/><g transform="translate(1511 325)" fill="none" stroke="#3b3086" stroke-width="2"><path d="M2,0h8a7,7,0,0,1,7,7V7a7,7,0,0,1-7,7H2a2,2,0,0,1-2-2V2A2,2,0,0,1,2,0Z" stroke="none"/><path d="M2,1h8a6,6,0,0,1,6,6V7a6,6,0,0,1-6,6H2a1,1,0,0,1-1-1V2A1,1,0,0,1,2,1Z" fill="none"/></g><path d="M10,0c8.833-1,8-.167,7.833,7S19,14.333,10,14-.5,7-.5,7,1.167,1,10,0Z" transform="translate(1391 325)" fill="#f39cba"/><path d="M1406.906,334s-12.469.094-14.375-.625c1.688,3.031,2.313,2.906,2.313,2.906a35.96,35.96,0,0,0,6.656,1.656,23.646,23.646,0,0,0,5.875,0l.344-2.562Z" fill="#e6769d"/><g transform="translate(1391 325)" fill="none"><path d="M10,0c8.833-1,8-.167,7.833,7S19,14.333,10,14-.5,7-.5,7,1.167,1,10,0Z" stroke="none"/><path d="M 14.46936988830566 1.65396785736084 C 13.55811023712158 1.65396785736084 12.2887601852417 1.753658294677734 10.22498989105225 1.987308502197266 C 7.142749786376953 2.336248397827148 4.726679801940918 3.379987716674805 3.043880462646484 5.089517593383789 C 2.290964126586914 5.854394912719727 1.856088638305664 6.593446254730225 1.629171371459961 7.060666561126709 C 1.838920593261719 7.569246768951416 2.254411697387695 8.382909774780273 3.001099586486816 9.192228317260742 C 4.61559009552002 10.94215774536133 6.995269775390625 11.88728809356689 10.074049949646 12.00136756896973 C 11.50654983520508 12.05444812774658 12.67691040039063 12.09504795074463 13.61526012420654 12.09504795074463 C 14.96120071411133 12.09504795074463 15.50934410095215 11.99963092803955 15.72505664825439 11.93590927124023 C 15.82704639434814 11.50348281860352 15.82235336303711 10.41563987731934 15.81816005706787 9.444607734680176 C 15.81504058837891 8.722837448120117 15.81151008605957 7.904767990112305 15.83354949951172 6.953678131103516 C 15.8477201461792 6.341877937316895 15.8669605255127 5.76697826385498 15.88393974304199 5.259748458862305 C 15.92055988311768 4.165727615356445 15.9494800567627 3.301597595214844 15.91504001617432 2.635868072509766 C 15.8885555267334 2.124135971069336 15.83010387420654 1.887849807739258 15.7971363067627 1.791691780090332 C 15.67450141906738 1.74687671661377 15.31789875030518 1.65396785736084 14.46936988830566 1.65396785736084 M 14.46937084197998 -0.3460273742675781 C 18.50448608398438 -0.3460273742675781 17.96322250366211 1.378862380981445 17.83300971984863 6.999998092651367 C 17.69393348693848 13.00343704223633 18.60606956481934 14.09504413604736 13.61525726318359 14.09504413604736 C 12.64836692810059 14.09504413604736 11.46063232421875 14.05412292480469 10 13.99999809265137 C 1 13.66650772094727 -0.5 6.999998092651367 -0.5 6.999998092651367 C -0.5 6.999998092651367 1.166990280151367 0.9999980926513672 10 -1.9073486328125e-06 C 11.90472602844238 -0.2156391143798828 13.36003589630127 -0.3460273742675781 14.46937084197998 -0.3460273742675781 Z" stroke="none" fill="#3b3086"/></g><g transform="translate(0 -2)"><g transform="translate(1498 342)" fill="#3b3086" stroke="#3b3086" stroke-linejoin="round" stroke-width="1"><rect width="18" height="3" stroke="none"/><rect x="0.5" y="0.5" width="17" height="2" fill="none"/></g><g transform="translate(1470 345)" fill="#3b3086" stroke="#3b3086" stroke-linejoin="round" stroke-width="1"><rect width="46" height="2" stroke="none"/><rect x="0.5" y="0.5" width="45" height="1" fill="none"/></g></g><path d="M1419.571,328.286h9.8" transform="translate(1 2)" fill="none" stroke="#fff" stroke-linecap="round" stroke-width="2"/><path d="M1419.571,328.286h1.179" transform="translate(-4 2)" fill="none" stroke="#fff" stroke-linecap="round" stroke-width="2"/></g><path d="M1299.571,375.429s15.643-15.5,19-15.714S1316.678,374,1313,374.571,1303,362,1303.857,362s16.285,8.143,25.143,9.857,10.286-3,10.286-3" transform="translate(-15 11.333)" fill="none" stroke="#3b3086" stroke-width="2"/></g></svg>