<svg xmlns="http://www.w3.org/2000/svg" xmlns:xlink="http://www.w3.org/1999/xlink" width="272.156" height="191.167" viewBox="0 0 272.156 191.167"><defs><radialGradient id="a" cx="0.5" cy="0.5" r="0.5" gradientUnits="objectBoundingBox"><stop offset="0" stop-color="#fff"/><stop offset="1" stop-color="#acdef8"/></radialGradient></defs><g transform="translate(-1164.437 -212.333)"><path d="M95.5,0h5a95.5,95.5,0,0,1,0,191h-5a95.5,95.5,0,0,1,0-191Z" transform="translate(1196 212.333)" fill="#acdef8"/><path d="M1218,261.333s9.583-14.75,22-13,8.433,1.367,28.6,2.2,23.5.2,53,2.2,62.067,20.267,64.067,23.6-29.25-1.667-57.334,0-31.833,4.583-55,6.667-23.833,2.833-37.666,1.667-10.583-4.75-17.667-6.333-10.667,4.25-10.667,0S1218,261.333,1218,261.333Z" transform="translate(0 -9)" fill="url(#a)"/><g transform="translate(54 -72)"><path d="M1225.333,333.833l13.417-6.083,17.5,3.75v6.167l-30.167,1Z" fill="#54506b" stroke="#707070" stroke-width="1"/><path d="M1259,375.25V475h-36.25l1-136.75,14.5-5,20.75,3.5Z" fill="#ebb886" stroke="#3b3086" stroke-width="1"/><path d="M1238,333l-.143,142h-15.144l1-137Z" fill="#a07f5e" stroke="#3b3086" stroke-width="1"/><path d="M1223.625,336.031c.125.313,14.469-5.344,14.469-5.344l19.781,4V321.125l-20.187-4-14.062,5.625S1223.5,335.719,1223.625,336.031Z" fill="#ebb886" stroke="#3b3086" stroke-linejoin="round" stroke-width="1"/><path d="M1237.938,317l.156,13.656v-.312l-14.562,5.906V322.656Z" fill="#a07f5e" stroke="#3b3086" stroke-linejoin="round" stroke-width="1"/><path d="M1240.188,315l16.094,5.781-18.625-3.594-6,2.375-8.062,3.031,15.219-8.031Z" fill="#f2d1b0" stroke="#3b3086" stroke-linejoin="round" stroke-width="1"/><path d="M1246.583,347.917v25.417l5.75.583,118.334-38.333L1382,316.833l-11.917-11-5.333-.5Z" fill="#ebb886" stroke="#3b3086" stroke-linejoin="bevel" stroke-width="1"/><path d="M1246.583,373.125l118.792-38.875L1377,316.125l5.125.5-11.75,18.875L1251.75,374.125Z" fill="#a07f5e" stroke="#3b3086" stroke-linejoin="bevel" stroke-width="1"/><path d="M1365.063,305.406l11.906,10.625,5.125.531-11.906-10.719Z" fill="#f2d1b0" stroke="#3b3086" stroke-linejoin="round" stroke-width="1"/><path d="M1259,393.5l82.375,12,8.875,12.25-8.875,10.5L1259,418.5Z" fill="#ebb886" stroke="#3b3086" stroke-width="1"/><path d="M1125.375,375.625l106.375,13.5V414.75l-108.375-11L1111,388.875Z" fill="#ebb886" stroke="#3b3086" stroke-linejoin="round" stroke-width="1"/><path d="M1114.438,388.625l12.313,15.313-3.625-.281L1111,389Z" fill="#a07f5e" stroke="#3b3086" stroke-linejoin="round" stroke-width="1"/><path d="M1127.563,375.922l-13.406,12.609-2.755.209-.464.119,14.375-13.234Z" fill="#f2d1b0" stroke="#3b3086" stroke-linejoin="round" stroke-width="1"/><path d="M1223.531,356.333l-3.781,1.417V381l3.781-.75Z" fill="#a07f5e" stroke="#3b3086" stroke-linejoin="round" stroke-width="1"/><path d="M1219.828,381.047l3.578.75V380.25l-1.5.313Z" fill="#a07f5e" stroke="#3b3086" stroke-linejoin="round" stroke-width="1"/><path d="M1246.583,434v9.25" fill="none" stroke="#a07f5e" stroke-linecap="round" stroke-width="1"/><path d="M1246.583,434v9.25" transform="translate(7 -31)" fill="none" stroke="#a07f5e" stroke-linecap="round" stroke-width="1"/><path d="M1246.583,434v9.25" transform="translate(-2 -52)" fill="none" stroke="#a07f5e" stroke-linecap="round" stroke-width="1"/><g transform="translate(54 282)"><path d="M1208.667,69l5-1.667" fill="none" stroke="#707070" stroke-linecap="round" stroke-width="1"/><path d="M1211.167,68.583V77.5" fill="none" stroke="#707070" stroke-linecap="round" stroke-width="1"/><path d="M1215.5,66.167v10" fill="none" stroke="#707070" stroke-linecap="round" stroke-width="1"/><path d="M1215.917,70.667l4.25-1.167" fill="none" stroke="#707070" stroke-linecap="round" stroke-width="1"/><path d="M1220.167,64.75v9.333" fill="none" stroke="#707070" stroke-linecap="round" stroke-width="1"/><path d="M1226.417,62.333l-4.25,1.417.416,9.583,4.25-1.417" fill="none" stroke="#707070" stroke-linecap="round" stroke-linejoin="round" stroke-width="1"/><path d="M1225.417,67.333l-2.75.583" fill="none" stroke="#707070" stroke-linecap="round" stroke-width="1"/><path d="M1238,58.583c2.417.5,1.917,2.333,1.667,6.083-.834,3-2.417,3.5-2.417,3.5s-2,.5-2.167-2.25S1235.583,58.083,1238,58.583Z" fill="none" stroke="#707070" stroke-linejoin="round" stroke-width="1"/><path d="M1242.583,56.917l4.917-1.667" fill="none" stroke="#707070" stroke-linecap="round" stroke-width="1"/><path d="M1245.042,56.583V65.75" fill="none" stroke="#707070" stroke-linecap="round" stroke-width="1"/><path d="M1250,54.417V64.75" fill="none" stroke="#707070" stroke-linecap="round" stroke-width="1"/><path d="M1255.333,52.333V63" fill="none" stroke="#707070" stroke-linecap="round" stroke-linejoin="round" stroke-width="1"/><path d="M1250,59.083l5.333-1.583" fill="none" stroke="#707070" stroke-width="1"/><path d="M1262.833,59.833l-5,1.417V51.583l4.584-1.75" fill="none" stroke="#707070" stroke-linecap="round" stroke-linejoin="round" stroke-width="1"/><path d="M1261.25,55.25l-3.417.667" fill="none" stroke="#707070" stroke-width="1"/><path d="M1265.333,59.083v-10.5s3.417-1.667,4.667,0-.583,3.833-.583,3.833L1266,54.184s2.917-1.018,4,2.816" fill="none" stroke="#707070" stroke-linecap="round" stroke-linejoin="round" stroke-width="1"/><path d="M1279.167,44.583l2.5,8.75,1.916-9.917L1286.167,51l2-9.917" fill="none" stroke="#707070" stroke-linecap="round" stroke-linejoin="round" stroke-width="1"/><path d="M1291,50.417l.745-2.75.186-.687,2.319-8.563,3.25,9.833" fill="none" stroke="#707070" stroke-linecap="round" stroke-linejoin="round" stroke-width="1"/><path d="M1296.417,46l-4.334,1.083" fill="none" stroke="#707070" stroke-width="1"/><path d="M1300.25,37.167l2.917,3.667,3.333-6.5" fill="none" stroke="#707070" stroke-linecap="round" stroke-linejoin="round" stroke-width="1"/><path d="M1303.375,46.542V41" fill="none" stroke="#707070" stroke-linecap="round" stroke-width="1"/></g><g transform="translate(53 283)"><path d="M1084.563,102.813l8.25.625" fill="none" stroke="#707070" stroke-linecap="round" stroke-width="1"/><path d="M1088.438,113.688V103.375" fill="none" stroke="#707070" stroke-linecap="round" stroke-width="1"/><path d="M1095.688,103.688v11.188" fill="none" stroke="#707070" stroke-linecap="round" stroke-width="1"/><path d="M1102.438,104.875v10.313" fill="none" stroke="#707070" stroke-linecap="round" stroke-width="1"/><path d="M1102.438,109.281l-6.5-.656" fill="none" stroke="#707070" stroke-width="1"/><path d="M1108.188,105.563v9.75" fill="none" stroke="#707070" stroke-width="1"/><path d="M1105.688,114.875l4.688.438" fill="none" stroke="#707070" stroke-linecap="round" stroke-width="1"/><path d="M1105.688,104.875l4.625.75" fill="none" stroke="#707070" stroke-linecap="round" stroke-width="1"/><path d="M1119.438,108s-3.25-2.25-5.25-.875c-.625,1.563-.562,2.813,1,3.563s4.438,2.438,4.25,3.813-2.437,2.063-3.812,1.75a3.67,3.67,0,0,1-2.125-1.75" fill="none" stroke="#707070" stroke-linecap="round" stroke-width="1"/><path d="M1130.188,108.063l2.375,9.75,2.875-8.812,2.563,9.875,2.563-9.625" fill="none" stroke="#707070" stroke-linecap="round" stroke-width="1"/><path d="M1143.5,119.875l3.875-10.062,3.375,10.563" fill="none" stroke="#707070" stroke-linecap="round" stroke-width="1"/><path d="M1144.375,117.313l5.438.25" fill="none" stroke="#707070" stroke-width="1"/><path d="M1153.688,111.5l3.688,5.748,3.688-5.312" fill="none" stroke="#707070" stroke-linecap="round" stroke-width="1"/><path d="M1157.375,121.75v-4.312" fill="none" stroke="#707070" stroke-linecap="round" stroke-width="1"/></g><g transform="translate(52 282)"><path d="M1220.625,120.375l6.25.5" fill="none" stroke="#707070" stroke-linecap="round" stroke-width="1"/><path d="M1223.75,120.875v9.25" fill="none" stroke="#707070" stroke-linecap="round" stroke-width="1"/><path d="M1229.625,121.5v9.375" fill="none" stroke="#707070" stroke-linecap="round" stroke-width="1"/><path d="M1235.188,122v9.5" fill="none" stroke="#707070" stroke-linecap="round" stroke-width="1"/><path d="M1229.938,125.5l5.125.875" fill="none" stroke="#707070" stroke-width="1"/><path d="M1237.813,132l3.063-8.75,3.563,9.25" fill="none" stroke="#707070" stroke-linecap="round" stroke-linejoin="round" stroke-width="1"/><path d="M1246.688,124.313c.313,0,6.125.438,6.125.438" fill="none" stroke="#707070" stroke-linecap="round" stroke-width="1"/><path d="M1249.75,133.75v-8.937" fill="none" stroke="#707070" stroke-linecap="round" stroke-width="1"/><path d="M1238.75,129.281h4.5" fill="none" stroke="#707070" stroke-width="1"/><path d="M1260.875,125.938l1.875,8.938,2.25-8.125,2.125,8.688,2-8.687" fill="none" stroke="#707070" stroke-linecap="round" stroke-linejoin="round" stroke-width="1"/><path d="M1271.25,136.375c-.062-.187,3-9.125,3-9.125l2.938,9.375" fill="none" stroke="#707070" stroke-linecap="round" stroke-linejoin="round" stroke-width="1"/><path d="M1272.125,133.75h4.25" fill="none" stroke="#707070" stroke-width="1"/><path d="M1279.438,128.688l3,5.25L1285.25,129" fill="none" stroke="#707070" stroke-linecap="round" stroke-width="1"/><path d="M1282.344,138.188v-4.375" fill="none" stroke="#707070" stroke-linecap="round" stroke-width="1"/></g></g></g></svg>