<svg xmlns="http://www.w3.org/2000/svg" width="44.703" height="37.488" viewBox="0 0 44.703 37.488"><g transform="translate(-411 -1420)"><path d="M4.488,21.86a17.65,17.65,0,0,1,2.43-9.048,17.985,17.985,0,0,1,6.57-6.57,17.966,17.966,0,0,1,16-.991,18.161,18.161,0,0,1,5.739,3.837,17.625,17.625,0,0,1,3.837,5.755A17.876,17.876,0,0,1,29.49,38.405a17.94,17.94,0,0,1-14,0,18.235,18.235,0,0,1-5.755-3.837,18.089,18.089,0,0,1-3.837-5.723A17.324,17.324,0,0,1,4.488,21.86Zm3.964,0a13.586,13.586,0,0,0,4.14,9.879A13.5,13.5,0,0,0,22.5,35.88a13.591,13.591,0,0,0,7.018-1.886,14.182,14.182,0,0,0,5.131-5.115,13.925,13.925,0,0,0,0-14.052,14.1,14.1,0,0,0-5.131-5.131,14,14,0,0,0-14.036,0,14.4,14.4,0,0,0-5.147,5.131A13.536,13.536,0,0,0,8.452,21.86ZM14.767,25.2a1.363,1.363,0,0,1,.607-.815l5.739-3.341V11.213a1.327,1.327,0,1,1,2.654,0V21.876a1.305,1.305,0,0,1-.272.8,1.227,1.227,0,0,1-.671.464L16.685,26.7a1.13,1.13,0,0,1-.655.192,1.245,1.245,0,0,1-1.151-.671A1.427,1.427,0,0,1,14.767,25.2Z" transform="translate(415.215 1417.66)" fill="#8c98db"/><circle cx="18" cy="18" r="18" transform="translate(411 1420)" fill="rgba(140,152,219,0.34)"/></g></svg>