<svg xmlns="http://www.w3.org/2000/svg" width="43.466" height="37.938" viewBox="0 0 43.466 37.938"><g transform="translate(3.528 -2)"><path d="M21.942,39.938a18,18,0,0,1-12.5-30.96,1.445,1.445,0,1,1,2.008,2.079A15.111,15.111,0,1,0,23.382,6.9v5.634a1.449,1.449,0,0,1-2.9,0V5.387a1.448,1.448,0,0,1,1.449-1.449,18,18,0,0,1,.009,36Z" transform="translate(0 0)" fill="#12aa56"/><path d="M12.368,11.384l7,5.027A2.117,2.117,0,0,1,16.9,19.856a2.044,2.044,0,0,1-.492-.492l-5.027-7a.705.705,0,0,1,.984-.984Z" transform="translate(3.016 3.012)" fill="#12aa56"/><circle cx="18" cy="18" r="18" transform="translate(-3.528 2)" fill="rgba(18,170,86,0.34)"/></g></svg>