<svg xmlns="http://www.w3.org/2000/svg" xmlns:xlink="http://www.w3.org/1999/xlink" width="110" height="23" viewBox="0 0 110 23"><defs><clipPath id="a"><rect width="110" height="23" transform="translate(1566 1385)" fill="#9394a1" stroke="#707070" stroke-width="1"/></clipPath></defs><g transform="translate(-1566 -1385)" clip-path="url(#a)"><g transform="translate(1573.225 1382.85)"><path d="M37.15,19.413c-.2.315-.36.585-.538.843-.57.824-1.119,1.664-1.731,2.456a7.56,7.56,0,0,1-1.164,1.143,2.774,2.774,0,0,1-4.006-.471c-.223-.279-.407-.588-.6-.866-.414.372-.812.77-1.252,1.115a3.551,3.551,0,0,1-2.429.868,2.905,2.905,0,0,1-2.4-1.408,6.3,6.3,0,0,1-.88-2.818,16.464,16.464,0,0,1,.034-3.5,4.648,4.648,0,0,0,.028-.606.583.583,0,0,0-.531-.649c-.509-.094-1.024-.153-1.523-.226-.277.719-.521,1.425-.818,2.108a22.335,22.335,0,0,1-2.907,4.912,6.263,6.263,0,0,1-.84.873,2.742,2.742,0,0,1-3.46.277,12.132,12.132,0,0,1-1.136-.9c-.431.485-.845,1.037-1.343,1.5a3.724,3.724,0,0,1-4.424.637,5.552,5.552,0,0,1-3.2-4.393,6.58,6.58,0,0,1,.588-4.11,3.942,3.942,0,0,1,2.612-2.288,4.674,4.674,0,0,1,2.864.21c-.061-.566-.135-1.123-.177-1.681a18.327,18.327,0,0,1,.6-7.053,4.921,4.921,0,0,1,.8-1.6A2.111,2.111,0,0,1,12.3,3.353,4.436,4.436,0,0,1,13.9,5.771a10.633,10.633,0,0,1,.387,3.395,30.5,30.5,0,0,1-2.3,11.3.433.433,0,0,0,.015.335,5.548,5.548,0,0,0,.54.808c.234.279.4.282.718.11a6.693,6.693,0,0,0,2.651-2.646,21.406,21.406,0,0,0,1.98-4.239.316.316,0,0,0-.1-.4,3.333,3.333,0,0,1-1.2-2.982,1.445,1.445,0,0,1,2.12-1.2,2.951,2.951,0,0,1,1.682,2.167c.138.557.124.562.7.647.73.107,1.468.179,2.191.322A1.866,1.866,0,0,1,25,15.477c0,.755-.1,1.509-.139,2.264A9.639,9.639,0,0,0,25,20.526a2.537,2.537,0,0,0,.246.635.824.824,0,0,0,1.146.383,2.477,2.477,0,0,0,.73-.508c.418-.438.8-.913,1.182-1.383a.461.461,0,0,0,.062-.294,26.679,26.679,0,0,1,.329-5.76c.141-.88.42-1.029,1.244-.7a1.641,1.641,0,0,1,1.184,1.788c-.034,1.161-.107,2.321-.135,3.482a7.707,7.707,0,0,0,.192,2.359,2.629,2.629,0,0,0,.365.781.952.952,0,0,0,1.506.149,4.556,4.556,0,0,0,.7-.851c1.037-1.643,2.057-3.3,3.078-4.951a.625.625,0,0,0,.087-.319,43.944,43.944,0,0,1,.334-6.163A16.655,16.655,0,0,1,38.313,4.73a5.8,5.8,0,0,1,.8-1.355,1.626,1.626,0,0,1,2.448-.234,2.9,2.9,0,0,1,1.076,2.18,11.257,11.257,0,0,1-.556,3.95,39.46,39.46,0,0,1-2.986,7.2,1.206,1.206,0,0,0-.127.572,11.139,11.139,0,0,0,.6,3.705,5.911,5.911,0,0,0,.483,1.023,4.238,4.238,0,0,0,.731.89,1.23,1.23,0,0,0,1.706.063,3.548,3.548,0,0,0,.717-.729,4.685,4.685,0,0,0,.871-2.4.56.56,0,0,0-.148-.351c-.223-.27-.5-.5-.7-.786a7.263,7.263,0,0,1-1.36-3.112,2.168,2.168,0,0,1-.025-.315c-.008-.865.532-1.284,1.35-.986a2.84,2.84,0,0,1,.989.627,6.475,6.475,0,0,1,1.844,3.516c.034.181.027.357.288.388.4.048.571.005.7-.263.094-.2.141-.419.25-.606.212-.363.457-.706.682-1.061s.459-.728.675-1.1a.54.54,0,0,0,.022-.258,43.03,43.03,0,0,1,.334-6.137,16.652,16.652,0,0,1,1.01-4.3,6.211,6.211,0,0,1,.851-1.475,1.626,1.626,0,0,1,2.448-.229A2.914,2.914,0,0,1,54.36,5.327a11.294,11.294,0,0,1-.558,3.95,38.8,38.8,0,0,1-3,7.216.757.757,0,0,0-.119.34,12.059,12.059,0,0,0,.613,3.917,4.934,4.934,0,0,0,.91,1.624,2.66,2.66,0,0,0,.431.386,1.19,1.19,0,0,0,1.474.029,3.563,3.563,0,0,0,.764-.717,4.689,4.689,0,0,0,.933-2.484.4.4,0,0,0-.09-.3,6.373,6.373,0,0,1-1.706-2.537,11.99,11.99,0,0,1-.413-1.412,1.09,1.09,0,0,1-.025-.262c-.023-.941.571-1.353,1.457-1.01a2.959,2.959,0,0,1,1.2.924,6.7,6.7,0,0,1,1.544,3.331.246.246,0,0,0,.221.24c.5.115.7-.008.844-.509a1.656,1.656,0,0,1,.2-.4c.408-.657.825-1.309,1.228-1.97a.729.729,0,0,0,.1-.369A44.653,44.653,0,0,1,60.647,9.6a17.818,17.818,0,0,1,1.065-4.745A6.175,6.175,0,0,1,62.6,3.339a1.616,1.616,0,0,1,2.391-.215,2.922,2.922,0,0,1,1.1,2.2,11.274,11.274,0,0,1-.557,3.95,39.381,39.381,0,0,1-2.986,7.2,1.2,1.2,0,0,0-.129.572,11.577,11.577,0,0,0,.612,3.731,5.016,5.016,0,0,0,.882,1.58,2.75,2.75,0,0,0,.4.377,1.215,1.215,0,0,0,1.541.05,3.4,3.4,0,0,0,.742-.7,4.7,4.7,0,0,0,.934-2.483.4.4,0,0,0-.086-.3,6.619,6.619,0,0,1-1.731-2.583,4.269,4.269,0,0,1-.414-1.811c.016-.5.253-.846.649-.906a1.768,1.768,0,0,1,.626.025,2.175,2.175,0,0,1,1.088.666,6.544,6.544,0,0,1,1.82,3.558c.041.25.148.332.365.337a3.394,3.394,0,0,0,.788-.007,1.754,1.754,0,0,0,.658-.335.459.459,0,0,0,.111-.389,25.236,25.236,0,0,1,.226-11.66,8.715,8.715,0,0,1,1.059-2.63,4.683,4.683,0,0,1,.338-.472,2.193,2.193,0,0,1,3.361-.279A5.01,5.01,0,0,1,77.8,5.231a13.951,13.951,0,0,1,.5,4.307,13.439,13.439,0,0,1-.707,4.538,14.044,14.044,0,0,1-2.354,3.855c-.159.2-.33.39-.479.6a.3.3,0,0,0-.042.251c.334.658.672,1.314,1.031,1.958a2.848,2.848,0,0,0,.444.554,1.306,1.306,0,0,0,.965.413,4.093,4.093,0,0,0,2.785-.943.438.438,0,0,0,.172-.488A7.293,7.293,0,0,1,82.3,13.392a4.559,4.559,0,0,1,3.452-1.324A3.417,3.417,0,0,1,89.029,16a6.306,6.306,0,0,1-2.642,4.136,7.2,7.2,0,0,1-2.5,1.213c.105.081.178.146.26.2a5.081,5.081,0,0,0,3.072.645,6.118,6.118,0,0,0,4.469-2.543c.193-.239.367-.494.554-.739.219-.286.408-.313.654-.051a2.493,2.493,0,0,1,.728,1.652,1.342,1.342,0,0,1-.3.882,8.292,8.292,0,0,1-7.557,3.371,6.685,6.685,0,0,1-3.8-1.4c-.233-.186-.441-.4-.608-.554-.741.4-1.442.844-2.19,1.18a4.867,4.867,0,0,1-2.932.427,4.247,4.247,0,0,1-2.655-1.737c-.453-.61-.8-1.3-1.2-1.949a2.787,2.787,0,0,1-.13-.279,5.2,5.2,0,0,1-2.53.073c-.161.565-.3,1.118-.476,1.656a4.469,4.469,0,0,1-1.418,2.153,3.273,3.273,0,0,1-3.714.335,5.672,5.672,0,0,1-2.348-2.256,7.835,7.835,0,0,1-1.086-2.672,1.118,1.118,0,0,0-.062-.151A2.056,2.056,0,0,1,58,20.506c-.165.58-.306,1.131-.48,1.671a4.729,4.729,0,0,1-1.016,1.772,3.273,3.273,0,0,1-3.755.876,5.27,5.27,0,0,1-2.274-1.787,8.916,8.916,0,0,1-1.593-3.58,1.943,1.943,0,0,1-2.591,1.051c-.206.672-.372,1.317-.6,1.938a5.05,5.05,0,0,1-.6,1.11,3.335,3.335,0,0,1-4.426,1.11,5.719,5.719,0,0,1-2.175-1.993,9.438,9.438,0,0,1-1.342-3.261Zm-30.7,3.4a2.317,2.317,0,0,0,2.02-.855,19.716,19.716,0,0,0,1.109-1.755.357.357,0,0,0-.013-.243q-.466-1.578-.943-3.153a.706.706,0,0,0-.151-.3,2.285,2.285,0,0,0-3.247,0,4.274,4.274,0,0,0-.762,1.1,5.026,5.026,0,0,0,.027,4.146,1.536,1.536,0,0,0,1.126.95,8.029,8.029,0,0,0,.834.106Zm4.26-5.779.1,0c.2-.837.415-1.67.589-2.512a29.774,29.774,0,0,0,.712-6.94,6.088,6.088,0,0,0-.371-2.146c-.16-.392-.351-.423-.637-.109a3.04,3.04,0,0,0-.626,1.265,13.484,13.484,0,0,0-.406,3.476,34.922,34.922,0,0,0,.316,5.081c.082.634.214,1.261.323,1.892ZM73.711,15.8a5.569,5.569,0,0,0,.924-1.409A12.668,12.668,0,0,0,75.784,8.1a6,6,0,0,0-.446-2.13c-.1-.217-.2-.478-.471-.481s-.365.27-.427.478a19.686,19.686,0,0,0-.529,1.98,33.228,33.228,0,0,0-.476,5.141,10.5,10.5,0,0,0,.276,2.7Zm9.042,3.425.1.034c.131-.05.263-.1.391-.151A5.092,5.092,0,0,0,86,16.662a2.715,2.715,0,0,0,.252-1.085.842.842,0,0,0-1.111-.842A2.26,2.26,0,0,0,84,15.454a4.471,4.471,0,0,0-1.111,2.318C82.8,18.248,82.795,18.738,82.753,19.223ZM40.6,5.174c-.768.623-1.733,5.629-1.537,6.524A16.639,16.639,0,0,0,40.6,5.174Zm11.744.041c-.684.567-1.738,5.567-1.545,6.552A20.108,20.108,0,0,0,52.34,5.214Zm10.147,6.468a20.6,20.6,0,0,0,1.6-6.463l-.135-.032a18.653,18.653,0,0,0-1.467,6.5Z" fill="#9394a1"/><path d="M28.061,9.46a1.87,1.87,0,0,1,1.765-1.914A1.983,1.983,0,0,1,31.86,9.213a2.386,2.386,0,0,1-.2,1.491,1.633,1.633,0,0,1-1.77.909A2.133,2.133,0,0,1,28.061,9.46Z" fill="#9394a1"/></g></g></svg>