<svg xmlns="http://www.w3.org/2000/svg" xmlns:xlink="http://www.w3.org/1999/xlink" width="110" height="23" viewBox="0 0 110 23"><defs><clipPath id="a"><rect width="110" height="23" transform="translate(1566 1468)" fill="#9394a1" stroke="#707070" stroke-width="1"/></clipPath></defs><g transform="translate(-1566 -1468)" clip-path="url(#a)"><path d="M3.716,0V19.292H10.7v3.323H0V0ZM23.8,9.592V7.558h3.532V22.623H23.82V20.581a4.838,4.838,0,0,1-2.025,1.758,5.761,5.761,0,0,1-2.636.653,7.672,7.672,0,0,1-3.139-.628,7.332,7.332,0,0,1-2.444-1.724,8.035,8.035,0,0,1-1.59-2.511,8.406,8.406,0,0,1,.008-6.06,8,8,0,0,1,1.59-2.544,7.34,7.34,0,0,1,2.427-1.741,7.757,7.757,0,0,1,3.139-.628,5.933,5.933,0,0,1,2.628.644,4.839,4.839,0,0,1,2.009,1.774Zm-.318,7.34a5.273,5.273,0,0,0,.335-1.841,5.206,5.206,0,0,0-.335-1.841,4.67,4.67,0,0,0-.9-1.532A4.377,4.377,0,0,0,21.175,10.7a4.319,4.319,0,0,0-1.825-.393,4.1,4.1,0,0,0-1.808.4,4.225,4.225,0,0,0-2.277,2.544,5.49,5.49,0,0,0-.31,1.841,5.419,5.419,0,0,0,.31,1.841,4.226,4.226,0,0,0,.887,1.507,4.419,4.419,0,0,0,1.389,1.046,4.476,4.476,0,0,0,3.632,0,4.369,4.369,0,0,0,1.406-1.038,4.67,4.67,0,0,0,.9-1.507Zm6.629,5.691V7.558h9.558v3.465H33.63V22.615H30.114ZM52.436,9.592V7.558h3.515V22.623H52.436V20.581a4.741,4.741,0,0,1-2.009,1.758,5.794,5.794,0,0,1-2.645.653,7.672,7.672,0,0,1-3.139-.628A7.332,7.332,0,0,1,42.2,20.64a8.035,8.035,0,0,1-1.59-2.511,8.524,8.524,0,0,1,.008-6.06,8,8,0,0,1,1.59-2.544,7.34,7.34,0,0,1,2.427-1.741,7.757,7.757,0,0,1,3.139-.628A5.933,5.933,0,0,1,50.4,7.8a4.788,4.788,0,0,1,2.009,1.774Zm-.318,7.34a5.273,5.273,0,0,0,.318-1.841,5.389,5.389,0,0,0-.318-1.841,4.67,4.67,0,0,0-.9-1.532A4.377,4.377,0,0,0,49.8,10.7a4.308,4.308,0,0,0-1.816-.393,4.162,4.162,0,0,0-1.816.4,4.225,4.225,0,0,0-2.277,2.544,5.491,5.491,0,0,0-.3,1.841,5.625,5.625,0,0,0,.3,1.841,4.352,4.352,0,0,0,.887,1.507,4.419,4.419,0,0,0,1.389,1.046,4.277,4.277,0,0,0,1.816.385,4.218,4.218,0,0,0,1.825-.385,4.369,4.369,0,0,0,1.423-1.038,4.67,4.67,0,0,0,.9-1.507ZM70.08,7.558h3.574L67.878,22.623H63.442L57.667,7.558h3.557L65.66,19.091,70.08,7.566Zm11.249-.385c4.8,0,8.068,4.252,7.449,9.223H77.085a4.242,4.242,0,0,0,4.436,3.8A6.3,6.3,0,0,0,86,17.853l2.377,1.841C86.242,21.954,84.5,23,81.764,23c-4.871,0-8.169-3.1-8.169-7.926A7.792,7.792,0,0,1,81.32,7.156ZM77.1,13.785h8.453A4.19,4.19,0,0,0,81.3,9.968,4.117,4.117,0,0,0,77.1,13.785ZM91.079,22.6V0h3.515V22.615H91.079Z" transform="translate(1573.703 1468)" fill="#9394a1"/></g></svg>