<svg xmlns="http://www.w3.org/2000/svg" xmlns:xlink="http://www.w3.org/1999/xlink" width="110" height="23" viewBox="0 0 110 23"><defs><clipPath id="a"><rect width="110" height="23" transform="translate(1566 1344)" fill="#9394a1" stroke="#707070" stroke-width="1"/></clipPath></defs><g transform="translate(-1566 -1344)" clip-path="url(#a)"><g transform="translate(1569.054 1343.993)"><path d="M101.5.042C102.3,0,103.095,0,103.892.021c-2.392,4.994-4.7,10.03-7.03,15.046H94.911c-1.07-2.518-2.329-4.973-3.441-7.491q1.165-.031,2.329,0c.671,1.553,1.469,3.043,2.077,4.6C97.744,8.121,99.674,4.092,101.5.042Z" fill="#9394a1"/><path d="M41.423,2.182c1.532.021,3.085.021,4.616,0-.021,1.364-.021,2.749,0,4.113-1.532-.021-3.085,0-4.637-.021C41.444,4.91,41.4,3.546,41.423,2.182ZM18.193,8.058c3.148-1.784,7.722-1.175,9.842,1.91a10.638,10.638,0,0,1,1.658,6.316c-3.609.021-7.219,0-10.828.021a3.856,3.856,0,0,0,1.679,2.875c1.469.86,3.777.609,4.512-1.091,1.49-.042,2.959-.042,4.449,0a6.42,6.42,0,0,1-3.253,3.945,8.626,8.626,0,0,1-5.561.776,7.327,7.327,0,0,1-4.91-3.085,8.739,8.739,0,0,1-1.259-6.085,7.458,7.458,0,0,1,3.672-5.582Zm2.455,2.623a3.625,3.625,0,0,0-1.763,2.665h6.169A3.743,3.743,0,0,0,24.006,11.1,3.108,3.108,0,0,0,20.648,10.681ZM66.582,7.26a8.5,8.5,0,0,1,7.135,1.8,8.335,8.335,0,0,1,.378,11.6,8.484,8.484,0,0,1-9.464,1.553,7.563,7.563,0,0,1-4.26-6.043,9.261,9.261,0,0,1,.567-4.407A7.447,7.447,0,0,1,66.582,7.26Zm.525,3.42a3.717,3.717,0,0,0-2.1,3.148,6.615,6.615,0,0,0,.9,4.721,3.078,3.078,0,0,0,4.679-.021,5.9,5.9,0,0,0,.965-4.155A4.4,4.4,0,0,0,70,11,3.284,3.284,0,0,0,67.107,10.681Zm15.948-2.56a5.623,5.623,0,0,1,5.477-.609,4.942,4.942,0,0,1,2.644,2.938,11.41,11.41,0,0,1,.357,4.134c0,2.644-.021,5.288.021,7.911-1.532.021-3.064,0-4.616.021V13.451a2.607,2.607,0,0,0-.944-2.1,2.627,2.627,0,0,0-3.253.294,3.506,3.506,0,0,0-.944,2.56v8.31c-1.511-.021-3.043,0-4.554-.021,0-4.994.021-9.988,0-14.983,1.49.021,2.959-.021,4.449.021-.021.692-.021,1.385-.042,2.077a10.47,10.47,0,0,1,1.406-1.49ZM0,7.554H4.784c.965,3.211,1.993,6.421,2.9,9.653,1.112-3.169,1.952-6.442,3-9.653,1.532-.021,3.085,0,4.616-.021-1.763,4.994-3.483,9.988-5.225,14.983-1.595,0-3.19-.021-4.784.021C3.462,17.564,1.847,12.507,0,7.554Zm30.742-.021h4.407c-.021.839,0,1.679-.042,2.518.378-.42.651-.944,1.049-1.343a4.106,4.106,0,0,1,4.029-1.154c-.021,1.322-.021,2.644,0,3.945a4.8,4.8,0,0,0-3.357.609,3.867,3.867,0,0,0-1.469,3.253c-.021,2.392,0,4.763,0,7.156-1.532,0-3.085-.021-4.616.021q.031-7.523,0-15Zm10.681.021c1.553-.021,3.085,0,4.637-.021-.021,4.994,0,9.988,0,14.983-1.532-.021-3.085,0-4.637,0ZM47.3,7.533c4.176.021,8.352,0,12.507.021-.042,1.154,0,2.287-.021,3.441a5.2,5.2,0,0,1-.588.755c-2.14,2.371-4.239,4.805-6.421,7.156,2.455.042,4.91,0,7.365.021v3.609q-6.421-.031-12.842,0V19.054c2.245-2.518,4.47-5.015,6.736-7.512.063-.126.336-.252.189-.42-2.308.063-4.616,0-6.925.042Z" fill="#9394a1"/></g></g></svg>