<svg xmlns="http://www.w3.org/2000/svg" width="468.591" height="404.927" viewBox="0 0 468.591 404.927"><g transform="translate(1.2 0.8)"><g transform="translate(125)"><path d="M220,0V10.8H0V0H220Z" transform="translate(0.1 216.4)" fill="#fcfcfc"/><path d="M0,215.7V0H103.6V215.7Z" transform="translate(112.2 0.7)" fill="#fcfcfc"/><path d="M86.2,0V96H0V0H6.4V89.5H39.9V0h6.4V89.5H79.8V0Z" transform="translate(120.9 111.8)" fill="#fcfcfc"/><path d="M79.8,102.5H0V0H86.3V102.5Z" transform="translate(120.8 9.3)" fill="#fcfcfc"/><path d="M4.3,0V215.7H0V0Z" transform="translate(107.9 0.7)" fill="#fcfcfc"/><path d="M0,215.7V0H103.5V215.7Z" transform="translate(4.4 0.7)" fill="#fcfcfc"/><path d="M86.3,0V96H0V0H6.5V89.5H39.9V0h6.5V89.5H79.8V0Z" transform="translate(13 111.8)" fill="#fcfcfc"/><path d="M79.8,102.5H0V0H86.3V102.5Z" transform="translate(13 9.3)" fill="#fcfcfc"/><rect width="220" height="10.8" transform="translate(0.1 216.4)" stroke-width="3" stroke="#efefef" stroke-linecap="round" stroke-linejoin="round" stroke-miterlimit="10" fill="none"/><path d="M211.4,0V215.7H0V0H211.4" transform="translate(4.4 0.7)" fill="none" stroke="#efefef" stroke-linecap="round" stroke-linejoin="round" stroke-miterlimit="10" stroke-width="3"/><path d="M0,0V215.7" transform="translate(113.2 0.7)" fill="none" stroke="#efefef" stroke-linecap="round" stroke-linejoin="round" stroke-miterlimit="10" stroke-width="3"/><path d="M0,215.7V0" transform="translate(106.9 0.7)" fill="none" stroke="#efefef" stroke-linecap="round" stroke-linejoin="round" stroke-miterlimit="10" stroke-width="3"/><rect width="86.3" height="198.4" transform="translate(13 9.3)" stroke-width="3" stroke="#efefef" stroke-linecap="round" stroke-linejoin="round" stroke-miterlimit="10" fill="none"/><path d="M33.4,0H0" transform="translate(59.4 105.3)" fill="none" stroke="#efefef" stroke-linecap="round" stroke-linejoin="round" stroke-miterlimit="10" stroke-width="3"/><path d="M33.4,0H0" transform="translate(19.5 105.3)" fill="none" stroke="#efefef" stroke-linecap="round" stroke-linejoin="round" stroke-miterlimit="10" stroke-width="3"/><path d="M0,0H86.3" transform="translate(13 111.8)" fill="none" stroke="#efefef" stroke-linecap="round" stroke-linejoin="round" stroke-miterlimit="10" stroke-width="3"/><path d="M0,89.5V0" transform="translate(52.9 111.8)" fill="none" stroke="#efefef" stroke-linecap="round" stroke-linejoin="round" stroke-miterlimit="10" stroke-width="3"/><path d="M0,89.5V0" transform="translate(52.9 15.8)" fill="none" stroke="#efefef" stroke-linecap="round" stroke-linejoin="round" stroke-miterlimit="10" stroke-width="3"/><path d="M0,89.5V0" transform="translate(59.4 111.8)" fill="none" stroke="#efefef" stroke-linecap="round" stroke-linejoin="round" stroke-miterlimit="10" stroke-width="3"/><path d="M0,89.5V0" transform="translate(59.4 15.8)" fill="none" stroke="#efefef" stroke-linecap="round" stroke-linejoin="round" stroke-miterlimit="10" stroke-width="3"/><path d="M0,0H33.4V89.5" transform="translate(59.4 15.8)" fill="none" stroke="#efefef" stroke-linecap="round" stroke-linejoin="round" stroke-miterlimit="10" stroke-width="3"/><path d="M0,89.5V0H33.4" transform="translate(19.5 15.8)" fill="none" stroke="#efefef" stroke-linecap="round" stroke-linejoin="round" stroke-miterlimit="10" stroke-width="3"/><path d="M0,0V89.5H33.4" transform="translate(19.5 111.8)" fill="none" stroke="#efefef" stroke-linecap="round" stroke-linejoin="round" stroke-miterlimit="10" stroke-width="3"/><path d="M33.4,0V89.5H0" transform="translate(59.4 111.8)" fill="none" stroke="#efefef" stroke-linecap="round" stroke-linejoin="round" stroke-miterlimit="10" stroke-width="3"/><rect width="86.3" height="198.4" transform="translate(120.9 9.3)" stroke-width="3" stroke="#efefef" stroke-linecap="round" stroke-linejoin="round" stroke-miterlimit="10" fill="none"/><path d="M33.5,0H0" transform="translate(167.2 105.3)" fill="none" stroke="#efefef" stroke-linecap="round" stroke-linejoin="round" stroke-miterlimit="10" stroke-width="3"/><path d="M33.5,0H0" transform="translate(127.3 105.3)" fill="none" stroke="#efefef" stroke-linecap="round" stroke-linejoin="round" stroke-miterlimit="10" stroke-width="3"/><path d="M0,0H86.2" transform="translate(120.9 111.8)" fill="none" stroke="#efefef" stroke-linecap="round" stroke-linejoin="round" stroke-miterlimit="10" stroke-width="3"/><path d="M0,89.5V0" transform="translate(160.8 111.8)" fill="none" stroke="#efefef" stroke-linecap="round" stroke-linejoin="round" stroke-miterlimit="10" stroke-width="3"/><path d="M0,89.5V0" transform="translate(160.8 15.8)" fill="none" stroke="#efefef" stroke-linecap="round" stroke-linejoin="round" stroke-miterlimit="10" stroke-width="3"/><path d="M0,89.5V0" transform="translate(167.2 111.8)" fill="none" stroke="#efefef" stroke-linecap="round" stroke-linejoin="round" stroke-miterlimit="10" stroke-width="3"/><path d="M0,89.5V0" transform="translate(167.2 15.8)" fill="none" stroke="#efefef" stroke-linecap="round" stroke-linejoin="round" stroke-miterlimit="10" stroke-width="3"/><path d="M0,0H33.5V89.5" transform="translate(167.2 15.8)" fill="none" stroke="#efefef" stroke-linecap="round" stroke-linejoin="round" stroke-miterlimit="10" stroke-width="3"/><path d="M0,89.5V0H33.5" transform="translate(127.3 15.8)" fill="none" stroke="#efefef" stroke-linecap="round" stroke-linejoin="round" stroke-miterlimit="10" stroke-width="3"/><path d="M0,0V89.5H33.5" transform="translate(127.3 111.8)" fill="none" stroke="#efefef" stroke-linecap="round" stroke-linejoin="round" stroke-miterlimit="10" stroke-width="3"/><path d="M33.5,0V89.5H0" transform="translate(167.2 111.8)" fill="none" stroke="#efefef" stroke-linecap="round" stroke-linejoin="round" stroke-miterlimit="10" stroke-width="3"/></g><g transform="translate(366 173)"><g transform="translate(3 3)"><path d="M44.6,0V.1C23.5,4.6,13.8,38.1,4.3,52.4H0c2.9-6,4.6-13,5.7-20.7a52.748,52.748,0,0,1,5.4-10.9A45.409,45.409,0,0,1,44.6,0Z" transform="translate(41.9 118.9)" fill="#f7f7f7"/><path d="M71.7,0V8.9H0V0H71.7Z" transform="translate(1.2 171.4)" fill="#f7f7f7"/><path d="M25.2,0l.1.1C16.1,13.3,3.5,46.8,5.4,69.9h0A52.748,52.748,0,0,0,0,80.8c1-7.4,1.4-15.4,1.7-24.1h.2C3.4,32.2,16.8,10.1,25.2,0Z" transform="translate(47.6 69.9)" fill="#f7f7f7"/><path d="M65.7,0,59.1,39.5H6.5L0,0Z" transform="translate(4.2 180.3)" fill="#f7f7f7"/><path d="M52.6,0l-.9,5.4H.9L0,0Z" transform="translate(10.7 219.8)" fill="#f7f7f7"/><path d="M0,80.3C2.6,48.5,21,12.8,29.6,0,12.5,39.1,13.2,76.2,12.3,106.3c-.3,8.6-.7,16.7-1.7,24.1-1.1,7.7-2.8,14.7-5.7,20.7H0c1.3-11.4,2-39.7,0-70.8Z" transform="translate(37 20.3)" fill="#f7f7f7"/><path d="M24.4,100.7c2,31,1.3,59.3,0,70.7H21.3c-5.9-13.4-7.9-37.2-9.2-63.1v-.1C10,66.8,10,19.8,0,0,15.2,19.9,21.9,62.4,24.4,100.7Z" transform="translate(12.6 0)" fill="#f7f7f7"/><path d="M33.7,143.9H29C1,111.8,27,66.9,0,0,12.6,17.8,21.8,49.2,24.5,80.6v.1C25.8,106.7,27.9,130.5,33.7,143.9Z" transform="translate(0.2 27.5)" fill="#f7f7f7"/></g><g transform="translate(4 2)"><g transform="translate(3 83)"><rect width="64.5" height="4.3" transform="translate(0.7 98.4)" fill="#efefef"/><path d="M14.7,5.9,16,0C9.3,8.2,2,29.1.7,40L0,64.9l4.8-8.3C1,41,14.7,5.9,14.7,5.9Z" transform="translate(44.7 0.4)" fill="#efefef"/><path d="M18.591,42.3c-1.4-3.1-2.9-9.3-4.1-14.7,1.9,7.8,4.1,14.7,4.1,14.7h3.2c1.3-4.5,1.3-32.2,1.3-32.2-2.6,18.6-10.3,7.2-11.3,0a45.915,45.915,0,0,0,.8,8.3c-2.9,13-10,1.5-12.5-18.4-1.4,26.5,13.9,42.2,13.9,42.2h4.6Z" transform="translate(11.109 47.2)" fill="#efefef"/><path d="M3.1,25.4l4.8-.1L17.8,6.9c-2.5,4.9-7.9,6-9.9,5h0A63.78,63.78,0,0,0,9.3,0C8.5,8.7.9,12.3.1,7.5L0,25.4Z" transform="translate(34.2 64.1)" fill="#efefef"/></g><path d="M0,3.1H8.3V8.6l20,.4-.1-5.9H71.7V0H0Z" transform="translate(0.2 172.4)" fill="#fff"/><path d="M7,44.8H20.7L19.8,0H0Z" transform="translate(10.6 181.4)" fill="#fff"/><path d="M1.8,32.1l.9,25.7c1.7-4.4,1.5-24.7,4.6-25.7,2.8-.9,5.5,10.2,5.5,10.2L10.7,16.8C5.1,37.9,1.1,9.4,0,0L1.6,20Z" transform="translate(11.3 78.4)" fill="#fff"/><path d="M21.3,63.3C13.5,15,0,0,0,0,11,20.1,12.7,112.3,12.7,112.3,18.1,82.3,13.5,49.4,21.3,63.3Z" transform="translate(11.4 0.6)" fill="#fff"/><path d="M24.983,0c-5,5.4-29,55.5-24.4,80.4S-1.317,53.6,24.983,0Z" transform="translate(35.917 30.2)" fill="#fff"/><path d="M0,35.5c2-5.6,15.6-30,21.4-24L34.2,0C34.3,0,3.8,6.7,0,35.5Z" transform="translate(46.6 120.7)" fill="#fff"/></g><g transform="translate(3 5)"><path d="M0,0C29,52.9,9.7,112.3,31.5,143.9" transform="translate(0.2 25.5)" fill="none" stroke="#e8e8e8" stroke-linecap="round" stroke-linejoin="round" stroke-miterlimit="10" stroke-width="1.5"/><path d="M43.5,0C12.6,9.3,16.2,26.1,0,52.3" transform="translate(43 117.1)" fill="none" stroke="#e8e8e8" stroke-linecap="round" stroke-linejoin="round" stroke-miterlimit="10" stroke-width="1.5"/><path d="M20.8,168.5C17.6,152.2,16.9,31.6,0,0" transform="translate(14.7 0.9)" fill="none" stroke="#e8e8e8" stroke-linecap="round" stroke-linejoin="round" stroke-miterlimit="10" stroke-width="1.5"/><path d="M0,147.9C14.7,101-7,66.4,25.1,0" transform="translate(39.5 21.5)" fill="none" stroke="#e8e8e8" stroke-linecap="round" stroke-linejoin="round" stroke-miterlimit="10" stroke-width="1.5"/><path d="M.025,20.8c-.4-6.7,4.1-20.8,4.1-20.8" transform="translate(34.175 134.9)" fill="none" stroke="#e8e8e8" stroke-linecap="round" stroke-linejoin="round" stroke-miterlimit="10" stroke-width="1.5"/><path d="M7.5,15.7C7,6.7,0,0,0,0" transform="translate(25.7 123)" fill="none" stroke="#e8e8e8" stroke-linecap="round" stroke-linejoin="round" stroke-miterlimit="10" stroke-width="1.5"/><path d="M.012,16.8c-.3-5.4,5.1-16.8,5.1-16.8" transform="translate(32.288 106.2)" fill="none" stroke="#e8e8e8" stroke-linecap="round" stroke-linejoin="round" stroke-miterlimit="10" stroke-width="1.5"/><path d="M7.3,15.1C6.9,8.5,0,0,0,0" transform="translate(24.1 92.4)" fill="none" stroke="#e8e8e8" stroke-linecap="round" stroke-linejoin="round" stroke-miterlimit="10" stroke-width="1.5"/><path d="M.034,15.2C-.466,8.3,4.734,0,4.734,0" transform="translate(30.166 74.6)" fill="none" stroke="#e8e8e8" stroke-linecap="round" stroke-linejoin="round" stroke-miterlimit="10" stroke-width="1.5"/><path d="M6,9.6C5.4,3.5,0,0,0,0" transform="translate(22.9 65)" fill="none" stroke="#e8e8e8" stroke-linecap="round" stroke-linejoin="round" stroke-miterlimit="10" stroke-width="1.5"/><path d="M6.1,12.8C5.7,8.1,0,0,0,0" transform="translate(28.5 148.7)" fill="none" stroke="#e8e8e8" stroke-linecap="round" stroke-linejoin="round" stroke-miterlimit="10" stroke-width="1.5"/><path d="M.119,16.5c-.8-5.9,2.7-16.5,2.7-16.5" transform="translate(27.581 45.8)" fill="none" stroke="#e8e8e8" stroke-linecap="round" stroke-linejoin="round" stroke-miterlimit="10" stroke-width="1.5"/><path d="M4.9,9.3C4.1,5,0,0,0,0" transform="translate(20.8 35.3)" fill="none" stroke="#e8e8e8" stroke-linecap="round" stroke-linejoin="round" stroke-miterlimit="10" stroke-width="1.5"/><path d="M.364,17.1c-1.6-6.6,2.6-17.1,2.6-17.1" transform="translate(23.936 136.1)" fill="none" stroke="#e8e8e8" stroke-linecap="round" stroke-linejoin="round" stroke-miterlimit="10" stroke-width="1.5"/><path d="M6.9,11.8C6,5.5,0,0,0,0" transform="translate(15.1 131.4)" fill="none" stroke="#e8e8e8" stroke-linecap="round" stroke-linejoin="round" stroke-miterlimit="10" stroke-width="1.5"/><path d="M6.6,5.5C5,1.2,0,0,0,0" transform="translate(20.3 155)" fill="none" stroke="#e8e8e8" stroke-linecap="round" stroke-linejoin="round" stroke-miterlimit="10" stroke-width="1.5"/><path d="M.014,15.5c-.3-3.9,4.2-14.2,5-15.5" transform="translate(19.886 109.9)" fill="none" stroke="#e8e8e8" stroke-linecap="round" stroke-linejoin="round" stroke-miterlimit="10" stroke-width="1.5"/><path d="M4.8,9.4C4.5,4,0,0,0,0" transform="translate(14.2 101.3)" fill="none" stroke="#e8e8e8" stroke-linecap="round" stroke-linejoin="round" stroke-miterlimit="10" stroke-width="1.5"/><path d="M.017,11.7C-.283,7.6,3.517,0,3.517,0" transform="translate(17.883 82.2)" fill="none" stroke="#e8e8e8" stroke-linecap="round" stroke-linejoin="round" stroke-miterlimit="10" stroke-width="1.5"/><path d="M4.2,7C3.7,2.9,0,0,0,0" transform="translate(12.3 73.4)" fill="none" stroke="#e8e8e8" stroke-linecap="round" stroke-linejoin="round" stroke-miterlimit="10" stroke-width="1.5"/><path d="M.143,8.2A14.954,14.954,0,0,1,1.543,0" transform="translate(14.957 62.3)" fill="none" stroke="#e8e8e8" stroke-linecap="round" stroke-linejoin="round" stroke-miterlimit="10" stroke-width="1.5"/><path d="M3.5,14.8C4.6,9.6,0,0,0,0" transform="translate(38.2 146.7)" fill="none" stroke="#e8e8e8" stroke-linecap="round" stroke-linejoin="round" stroke-miterlimit="10" stroke-width="1.5"/><path d="M0,10.2C.5,6.1,4.7,0,4.7,0" transform="translate(43.8 139.8)" fill="none" stroke="#e8e8e8" stroke-linecap="round" stroke-linejoin="round" stroke-miterlimit="10" stroke-width="1.5"/><path d="M6.9,14.3C7.1,9.9,1.9,1.1,0,0" transform="translate(38.2 123.1)" fill="none" stroke="#e8e8e8" stroke-linecap="round" stroke-linejoin="round" stroke-miterlimit="10" stroke-width="1.5"/><path d="M0,10.8C0,6.9,4,0,4,0" transform="translate(45.4 114.6)" fill="none" stroke="#e8e8e8" stroke-linecap="round" stroke-linejoin="round" stroke-miterlimit="10" stroke-width="1.5"/><path d="M8.3,16.4C8.4,11.4,1.9,1.3,0,0" transform="translate(37.1 97.5)" fill="none" stroke="#e8e8e8" stroke-linecap="round" stroke-linejoin="round" stroke-miterlimit="10" stroke-width="1.5"/><path d="M0,11.4C.3,6.4,5,0,5,0" transform="translate(45.4 90.7)" fill="none" stroke="#e8e8e8" stroke-linecap="round" stroke-linejoin="round" stroke-miterlimit="10" stroke-width="1.5"/><path d="M4.7,15.3C5.1,10.3,2.1,1.9,0,0" transform="translate(41.3 75.4)" fill="none" stroke="#e8e8e8" stroke-linecap="round" stroke-linejoin="round" stroke-miterlimit="10" stroke-width="1.5"/><path d="M0,8.8C.4,5.8,4.2.1,5.4,0" transform="translate(47.2 69.8)" fill="none" stroke="#e8e8e8" stroke-linecap="round" stroke-linejoin="round" stroke-miterlimit="10" stroke-width="1.5"/><path d="M1.2,11C1.8,8.3,1.4.7,0,0" transform="translate(47.9 55.4)" fill="none" stroke="#e8e8e8" stroke-linecap="round" stroke-linejoin="round" stroke-miterlimit="10" stroke-width="1.5"/><path d="M0,3.4C.5,1.6,3.8,0,3.8,0" transform="translate(52.5 49.2)" fill="none" stroke="#e8e8e8" stroke-linecap="round" stroke-linejoin="round" stroke-miterlimit="10" stroke-width="1.5"/><path d="M0,4.7C.9,2.9,5.6,0,5.6,0" transform="translate(46.9 157.8)" fill="none" stroke="#e8e8e8" stroke-linecap="round" stroke-linejoin="round" stroke-miterlimit="10" stroke-width="1.5"/><path d="M0,13.3C1,11,1.5,1.8,0,0" transform="translate(50.6 141.8)" fill="none" stroke="#e8e8e8" stroke-linecap="round" stroke-linejoin="round" stroke-miterlimit="10" stroke-width="1.5"/><path d="M0,5.3C1.1,2.8,5.9.1,6.5,0" transform="translate(54.4 141.4)" fill="none" stroke="#e8e8e8" stroke-linecap="round" stroke-linejoin="round" stroke-miterlimit="10" stroke-width="1.5"/><path d="M0,8.2C.8,6.8,1.1,0,1.1,0" transform="translate(59 129.2)" fill="none" stroke="#e8e8e8" stroke-linecap="round" stroke-linejoin="round" stroke-miterlimit="10" stroke-width="1.5"/><path d="M0,2.7C1.2,1.4,6.5,0,6.5,0" transform="translate(63.4 128.2)" fill="none" stroke="#e8e8e8" stroke-linecap="round" stroke-linejoin="round" stroke-miterlimit="10" stroke-width="1.5"/></g><path d="M26.7,174.3C29.6,148.2,29.8,33.1,0,0" transform="translate(13.3 0.1)" fill="none" stroke="#e8e8e8" stroke-linecap="round" stroke-linejoin="round" stroke-miterlimit="10" stroke-width="3"/><path d="M0,0C16.3,32.2,6.2,136.6,21.4,171.5" transform="translate(15.6 2.9)" fill="none" stroke="#e8e8e8" stroke-linecap="round" stroke-linejoin="round" stroke-miterlimit="10" stroke-width="3"/><path d="M0,151.1C15.3,119.4-2.5,62.2,24.7,0" transform="translate(44.9 23.3)" fill="none" stroke="#e8e8e8" stroke-linecap="round" stroke-linejoin="round" stroke-miterlimit="10" stroke-width="3"/><path d="M0,0C27,66.9,1,111.8,29,143.9" transform="translate(3.2 30.5)" fill="none" stroke="#e8e8e8" stroke-linecap="round" stroke-linejoin="round" stroke-miterlimit="10" stroke-width="3"/><path d="M0,52.3C9.5,38,19.3,4.5,40.3,0" transform="translate(49.2 122.1)" fill="none" stroke="#e8e8e8" stroke-linecap="round" stroke-linejoin="round" stroke-miterlimit="10" stroke-width="3"/><path d="M49.1.375c-15.9-2.2-39.2,4.9-49.1,31.6" transform="translate(50.6 121.725)" fill="none" stroke="#e8e8e8" stroke-linecap="round" stroke-linejoin="round" stroke-miterlimit="10" stroke-width="3"/><path d="M20.092,0c-9.2,13.2-21.8,46.7-19.9,69.8" transform="translate(55.808 73)" fill="none" stroke="#e8e8e8" stroke-linecap="round" stroke-linejoin="round" stroke-miterlimit="10" stroke-width="3"/><path d="M0,0H64.2" transform="translate(5.7 228.2)" fill="none" stroke="#e8e8e8" stroke-linecap="round" stroke-linejoin="round" stroke-miterlimit="10" stroke-width="3"/><rect width="71.7" height="9" transform="translate(4.2 174.4)" stroke-width="3" stroke="#e8e8e8" stroke-linecap="round" stroke-linejoin="round" stroke-miterlimit="10" fill="none"/><path d="M7.5,0,0,44.8" transform="translate(65.4 183.4)" fill="none" stroke="#e8e8e8" stroke-linecap="round" stroke-linejoin="round" stroke-miterlimit="10" stroke-width="3"/><path d="M0,0,7.4,44.8" transform="translate(7.2 183.4)" fill="none" stroke="#e8e8e8" stroke-linecap="round" stroke-linejoin="round" stroke-miterlimit="10" stroke-width="3"/><path d="M0,84.7C3,47.8,27.2,5.6,32.9,0" transform="translate(40 19)" fill="none" stroke="#e8e8e8" stroke-linecap="round" stroke-linejoin="round" stroke-miterlimit="10" stroke-width="3"/><path d="M27.6,84.8C24.6,50.8,14.2,16.8,0,0" transform="translate(0.1 26.5)" fill="none" stroke="#e8e8e8" stroke-linecap="round" stroke-linejoin="round" stroke-miterlimit="10" stroke-width="3"/><path d="M27,0C19.7,6.9,1.8,32.1,0,60.7" transform="translate(52.5 68.9)" fill="none" stroke="#e8e8e8" stroke-linecap="round" stroke-linejoin="round" stroke-miterlimit="10" stroke-width="3"/><path d="M4.4,0H0" transform="translate(76.4 228.2)" fill="none" stroke="#e8e8e8" stroke-linecap="round" stroke-linejoin="round" stroke-miterlimit="10" stroke-width="3"/><path d="M0,0H52.6" transform="translate(13.7 222.8)" fill="none" stroke="#e8e8e8" stroke-linecap="round" stroke-linejoin="round" stroke-miterlimit="10" stroke-width="1.5"/></g><g transform="translate(74 189)"><path d="M320,0V10H0V0Z" transform="translate(0.4 99)" fill="#775b44"/><path d="M30,.1V2.5a14.607,14.607,0,0,1-5.2,10.9A11.865,11.865,0,0,1,22.5,15v2H7.5V15A14.92,14.92,0,0,1,0,2V0H30Z" transform="translate(251.7 79.9)" fill="#de5b5d"/><path d="M39.5,103.4H27.6S.5,55.5,0,41.7v-.6C.2,33.1,9.1,15.7,17.9,0H33.1C25.4,16.1,17.3,34.7,17.3,41.4,17.4,53.6,34.5,94.1,39.5,103.4Z" transform="translate(219.4 109)" fill="#775b44"/><path d="M160,0V3.4S158.5,8,145.1,8H14.9C1.5,8,0,3.4,0,3.4V0H160Z" transform="translate(80.9 90.9)" fill="#ddd"/><path d="M0,90V4.2A4.162,4.162,0,0,1,4.2,0H131.7A4.125,4.125,0,0,1,136,4.2V90Z" transform="translate(93.3 0.996)" fill="#ddd"/><rect width="120" height="74" transform="translate(101.3 8.9)" fill="#444"/><path d="M118.2,6.4V10H0V0H118.2V6.4Z" transform="translate(101.3 144.3)" fill="#775b44"/><path d="M64,0V5H0V0H64Z" transform="translate(131 139.2)" fill="#ddd"/><path d="M64.1,2.6l-.2,4.7-3.7-.2L0,4,.2,0H.3C2.4.1,28.1,1.6,46.4,2.3h.3C55.2,2.7,62.1,2.8,64.1,2.6Z" transform="translate(128.8 126.7)" fill="#ddd"/><path d="M63.135,10.519v.3h-19.6s-26.7-.9-36.9-1.5c-8.8-.5-7.7-9.8-3.3-9.3,2.3.2,2.9,3.4,0,3.4h-.1l-.2,4Z" transform="translate(125.865 123.381)" fill="#ddd"/><path d="M64,.4v5H0V0C1.5.4,26.1.4,44.4.4Z" transform="translate(125 133.8)" fill="#ddd"/><path d="M21.4,0c8.9,15.9,17.9,33.4,17.9,41.4,0,13.4-27.6,62-27.6,62H0c4.9-9.4,22-49.8,22-62C22,34.7,13.9,16.1,6.2,0Z" transform="translate(62 109)" fill="#775b44"/><rect width="29.8" height="4.4" transform="translate(251.7 80)" fill="#fff" opacity="0.5"/><rect width="136" height="5.2" transform="translate(93.3)" fill="#fff"/><rect width="4.1" height="87.4" transform="translate(225.2 2.6)" fill="#fff"/><path d="M118.8,0H0V3.4H115.5V73.3h2.8V3.4h.5Z" transform="translate(102.5 8.9)" opacity="0.25"/><rect width="160" height="3.4" transform="translate(80.4 91.5)" fill="#fff"/><rect width="16" height="6" transform="translate(69.5 110.2)" opacity="0.25"/><rect width="16" height="6" transform="translate(235 109.9)" opacity="0.25"/><rect width="321.2" height="3.9" transform="translate(0.4 99.5)" fill="#fff" opacity="0.25"/><rect width="64" height="5.4" transform="translate(125 133.8)" opacity="0.25"/><rect width="118.2" height="5.2" transform="translate(101.3 143.5)" fill="#fff" opacity="0.25"/><path d="M5.8,13.1C7.3,21.3,19.5,16.3,26.9,0,18.3,19.1,11.8,28.7,11.8,28.7H0Z" transform="translate(62 183.7)" opacity="0.25"/><path d="M21.1,13.1C19.6,21.3,7.4,16.3,0,0,8.6,19.1,15.1,28.7,15.1,28.7H26.9Z" transform="translate(232 183.7)" opacity="0.25"/><path d="M42.7,0,0,42.7v11L53.7,0Z" transform="translate(100.8 12.3)" fill="#fff" opacity="0.15"/><path d="M0,61.6,61.6,0H107L35,72H0Z" transform="translate(101.3 12.1)" fill="#fff" opacity="0.15"/><g transform="translate(80)"><path d="M0,90V4.2A4.225,4.225,0,0,1,4.2,0H131.7a4.225,4.225,0,0,1,4.2,4.2V90" transform="translate(13.3 0.9)" fill="none" stroke="#333" stroke-linecap="round" stroke-linejoin="round" stroke-miterlimit="10" stroke-width="4"/><rect width="120" height="74" transform="translate(21.3 8.9)" stroke-width="4" stroke="#333" stroke-linecap="round" stroke-linejoin="round" stroke-miterlimit="10" fill="none"/><path d="M14.9,8C1.5,8,0,3.4,0,3.4V0H160V3.4S158.5,8,145.1,8H14.9" transform="translate(0.9 90.9)" fill="none" stroke="#333" stroke-linecap="round" stroke-linejoin="round" stroke-miterlimit="10" stroke-width="4"/></g><g transform="translate(0 99)"><rect width="320" height="10" transform="translate(0.4)" stroke-width="4" stroke="#333" stroke-linecap="round" stroke-linejoin="round" stroke-miterlimit="10" fill="none"/><path d="M15.8,0C8.1,16.1,0,34.7,0,41.4c0,12.2,17.1,52.7,22.1,62" transform="translate(236.8 10)" fill="none" stroke="#333" stroke-linecap="round" stroke-linejoin="round" stroke-miterlimit="10" stroke-width="4"/><path d="M17.9,0C9,15.9,0,33.4,0,41.4c0,13.4,27.6,62,27.6,62" transform="translate(219.5 10)" fill="none" stroke="#333" stroke-linecap="round" stroke-linejoin="round" stroke-miterlimit="10" stroke-width="4"/><rect width="118.2" height="10" transform="translate(101.3 45.4)" stroke-width="4" stroke="#333" stroke-linecap="round" stroke-linejoin="round" stroke-miterlimit="10" fill="none"/><path d="M6.2,0C13.9,16.1,22,34.7,22,41.4c0,12.2-17.1,52.7-22,62" transform="translate(62 10)" fill="none" stroke="#333" stroke-linecap="round" stroke-linejoin="round" stroke-miterlimit="10" stroke-width="4"/><path d="M9.7,0c8.9,15.9,17.9,33.4,17.9,41.4,0,13.4-27.6,62-27.6,62" transform="translate(73.7 10)" fill="none" stroke="#333" stroke-linecap="round" stroke-linejoin="round" stroke-miterlimit="10" stroke-width="4"/><path d="M0,0H339" transform="translate(0.9 113.4)" fill="none" stroke="#333" stroke-linecap="round" stroke-linejoin="round" stroke-miterlimit="10" stroke-width="4"/></g><g transform="translate(251 47)"><path d="M6.5,0V.6A8.789,8.789,0,0,1,0,9" transform="translate(17.7 8.4)" fill="none" stroke="#333" stroke-linecap="round" stroke-linejoin="round" stroke-miterlimit="10" stroke-width="2" opacity="0.5"/><path d="M3.8.9A7.9,7.9,0,0,0,0,0" transform="translate(15.5 0.2)" fill="none" stroke="#333" stroke-linecap="round" stroke-linejoin="round" stroke-miterlimit="10" stroke-width="2" opacity="0.5"/><path d="M.1.1,0,0" transform="translate(22.6 4)" fill="none" stroke="#333" stroke-linecap="round" stroke-linejoin="round" stroke-miterlimit="10" stroke-width="2" opacity="0.5"/><path d="M.8,0A4.069,4.069,0,0,0,0,2.4,3.862,3.862,0,0,0,2.3,6" transform="translate(10.2 21.9)" fill="none" stroke="#333" stroke-linecap="round" stroke-linejoin="round" stroke-miterlimit="10" stroke-width="2" opacity="0.5"/><path d="M30,2a14.92,14.92,0,0,1-7.5,13v2H7.5V15A14.92,14.92,0,0,1,0,2H0V0H30V2Z" transform="translate(0.7 33)" fill="none" stroke="#333" stroke-linecap="round" stroke-linejoin="round" stroke-miterlimit="10" stroke-width="4"/><path d="M0,10.9c5.2,0,10-3,10-6.8A4.055,4.055,0,0,0,5.9,0a1.7,1.7,0,0,0-.7.1" transform="translate(25.5 35.4)" fill="none" stroke="#333" stroke-linecap="round" stroke-linejoin="round" stroke-miterlimit="10" stroke-width="4"/></g><g transform="translate(125 123)"><rect width="64" height="5" transform="translate(6 16.2)" stroke-width="2" stroke="#333" stroke-linecap="round" stroke-linejoin="round" stroke-miterlimit="10" fill="none"/><path d="M64,.4S2.5.6,0,0V5.4H64Z" transform="translate(0 10.8)" fill="none" stroke="#333" stroke-linecap="round" stroke-linejoin="round" stroke-miterlimit="10" stroke-width="2"/><path d="M64.1,2.5C57.4,3.3.2,0,.2,0L0,4,63.9,7.3Z" transform="translate(3.8 3.8)" fill="none" stroke="#333" stroke-linecap="round" stroke-linejoin="round" stroke-miterlimit="10" stroke-width="2"/><path d="M3.135,3.413c3.1.2,2.5-3.1.2-3.4-4.4-.4-5.5,8.9,3.3,9.3,10.3.5,36.9,1.5,36.9,1.5" transform="translate(0.865 0.387)" fill="none" stroke="#333" stroke-linecap="round" stroke-linejoin="round" stroke-miterlimit="10" stroke-width="2"/><path d="M16.4,0C14.2.9,6.3,2,0,1.7" transform="translate(50.3 4.4)" fill="none" stroke="#333" stroke-linecap="round" stroke-linejoin="round" stroke-miterlimit="10" stroke-width="2"/></g><path d="M0,0H6.2" transform="translate(314.2 104.7)" fill="none" stroke="#333" stroke-linecap="round" stroke-linejoin="round" stroke-miterlimit="10" stroke-width="2"/></g><g transform="translate(0 224)"><g transform="translate(7 1)"><path d="M127,143.733a29.837,29.837,0,0,0-.4-4.2,51.3,51.3,0,0,0-1.3-6.6c-6.3-23.3-28.8-44.7-53.8-57.1a103.048,103.048,0,0,1-22.3-14.9c-2.6-2.3-4.9-4.6-7.1-6.9-9.2-9.8-15.6-20.1-21.9-29.1-1.2-1.8-2.4-3.5-3.7-5.2-4.9-6.8-10.1-12.5-16.5-16.2H0c6-2.6,13.5-4.4,21-3.1,14.5,2.5,38,33.5,61,58s82.5,39.5,79,73.9c-2.6,19.9-12,34.2-25.1,43.9H115.6C124.1,165.533,127.5,154.633,127,143.733Z" transform="translate(18.8 0.467)" fill="#8dbf75"/><path d="M145.006,140.3c.5,10.8-2.9,21.8-11.4,32.3H24.006c-35-25.2-22-115.3-20-128a24.519,24.519,0,0,0,.2-2.7h0a40.206,40.206,0,0,0-.3-6c-1.3-10.4-5.5-21.1,2.1-28.4,1.9-1.9,6.4-5,12-7.5h0c6.5,3.7,11.6,9.4,16.5,16.2,1.2,1.7,2.5,3.4,3.7,5.2,6.2,9.1,12.7,19.4,21.9,29.1a92.751,92.751,0,0,0,7.1,6.9,105.565,105.565,0,0,0,22.3,14.9c24.9,12.4,47.5,33.8,53.8,57.1a51.3,51.3,0,0,1,1.3,6.6A21.521,21.521,0,0,1,145.006,140.3Z" transform="translate(0.794 3.9)" fill="#8dbf75"/></g><g transform="translate(6)"><path d="M2.973,0c9.1,20.1,19.9,36,40.3,29.8-77,114.7,113.2,139,136.6,75.4,5.3,23.9-23.2,47.5-23.2,47.5H22.973s-32.3-27.4-20.3-113.5C6.573,14.6,2.973,0,2.973,0Z" transform="translate(0.427 24.9)" opacity="0.1"/><path d="M3,0C8,8,20.6,18,40.6,10.1,31.1,25.4,10,25.5,0,19.5,1.7,12.7,3,0,3,0Z" transform="translate(3 44.5)" opacity="0.1"/><path d="M0,20.155c4.7-8.7,30-20.4,47.5-8.1,14,10,48.7,69.3,104.4,82.4-38.1-19.3-75.3-58.1-83.3-69.1-16.4-16.2-31.3-34.4-54.2-20.3C4.8,11.455,1.1,14.555,0,20.155Z" transform="translate(3 0.945)" fill="#fff" opacity="0.25"/><path d="M0,0C7.8,16.1,22.2,35.7,33.1,46s56.8,25.9,75.1,63.5C95.5,77.1,67,64.3,61.6,60.6S35.2,48.1,23,31.1,0,0,0,0Z" transform="translate(34.5 20.5)" fill="#fff" opacity="0.25"/><path d="M0,0C3.2,33.6,11.3,49.8,15.7,31.4c1.8,11.6,12,21.5,14.5,13.4,8.1,19.8,89,27.7,100.8,15.3.8,2.5,6.3,5.3,11.8-3.4-.4,8.4,21.8,8.3,29.2-4.5-10.2,16.9-16.9,21.1-16.9,21.1H24S.5,61.8,0,0Z" transform="translate(1.8 104.2)" opacity="0.1"/><ellipse cx="2.6" cy="6.4" rx="2.6" ry="6.4" transform="translate(145.242 99.739) rotate(-57.575)" fill="#fff" opacity="0.25"/><ellipse cx="1.7" cy="4" rx="1.7" ry="4" transform="translate(136.014 94.715) rotate(-57.575)" fill="#fff" opacity="0.25"/></g><g transform="translate(0 1)"><path d="M24.006,176.124h129.9c13.1-9.7,22.5-24,25.1-43.9,3.5-34.4-56-49.5-79-73.9s-46.5-55.4-61-57.9-29,6.7-33,10.6c-9.7,9.5,0,24.4-2,37.2C2.006,60.924-10.994,150.924,24.006,176.124Z" transform="translate(7.794 0.376)" fill="none" stroke="#333" stroke-linecap="round" stroke-linejoin="round" stroke-miterlimit="10" stroke-width="4"/><path d="M0,0C22.9,13.1,28.5,51.1,71.5,72.4c40.1,19.9,74.1,63.2,44.1,100.2" transform="translate(25.8 3.9)" fill="none" stroke="#333" stroke-linecap="round" stroke-linejoin="round" stroke-miterlimit="10" stroke-width="2"/><path d="M0,2.9,4.5,0" transform="translate(40.2 18.6)" fill="none" stroke="#333" stroke-linecap="round" stroke-linejoin="round" stroke-miterlimit="10" stroke-width="2"/><path d="M0,2.9,5.3,0" transform="translate(43.4 23.9)" fill="none" stroke="#333" stroke-linecap="round" stroke-linejoin="round" stroke-miterlimit="10" stroke-width="2"/><path d="M0,7,1.5,0" transform="translate(74.3 57.7)" fill="none" stroke="#333" stroke-linecap="round" stroke-linejoin="round" stroke-miterlimit="10" stroke-width="2"/><path d="M6.5,0,0,1.3" transform="translate(65.2 53.7)" fill="none" stroke="#333" stroke-linecap="round" stroke-linejoin="round" stroke-miterlimit="10" stroke-width="2"/><path d="M0,0H6.2" transform="translate(150.3 144.2)" fill="none" stroke="#333" stroke-linecap="round" stroke-linejoin="round" stroke-miterlimit="10" stroke-width="2"/><path d="M0,0H7.6" transform="translate(148.9 140)" fill="none" stroke="#333" stroke-linecap="round" stroke-linejoin="round" stroke-miterlimit="10" stroke-width="2"/><path d="M0,2.6,7.8,0" transform="translate(147.5 132)" fill="none" stroke="#333" stroke-linecap="round" stroke-linejoin="round" stroke-miterlimit="10" stroke-width="2"/><path d="M0,0C0,15.4,11.5,36.9,18.5,41.9" transform="translate(23.5 134.6)" fill="none" stroke="#333" stroke-linecap="round" stroke-linejoin="round" stroke-miterlimit="10" stroke-width="2"/><path d="M0,0C0,9.2,6,27.1,10.3,28.5" transform="translate(38 148)" fill="none" stroke="#333" stroke-linecap="round" stroke-linejoin="round" stroke-miterlimit="10" stroke-width="2"/><path d="M7.7,0C6,6,2.7,11.1,0,13.2" transform="translate(131.1 163.3)" fill="none" stroke="#333" stroke-linecap="round" stroke-linejoin="round" stroke-miterlimit="10" stroke-width="2"/><path d="M0,0C3.1,9.3,9.3,12.9,14.8,15.2" transform="translate(11.7 39.8)" fill="none" stroke="#333" stroke-linecap="round" stroke-linejoin="round" stroke-miterlimit="10" stroke-width="2"/><path d="M0,0C.6,5.8,2.9,10.3,7.1,11.8" transform="translate(12 45.8)" fill="none" stroke="#333" stroke-linecap="round" stroke-linejoin="round" stroke-miterlimit="10" stroke-width="2"/><path d="M20,0H0" transform="translate(11.8 176.5)" fill="none" stroke="#333" stroke-linecap="round" stroke-linejoin="round" stroke-miterlimit="10" stroke-width="4"/><path d="M4,0H0" transform="translate(0.8 176.5)" fill="none" stroke="#333" stroke-linecap="round" stroke-linejoin="round" stroke-miterlimit="10" stroke-width="4"/><path d="M0,4.3.3,0" transform="translate(24 124)" fill="none" stroke="#333" stroke-linecap="round" stroke-linejoin="round" stroke-miterlimit="10" stroke-width="2"/></g></g></g></svg>