<svg xmlns="http://www.w3.org/2000/svg" xmlns:xlink="http://www.w3.org/1999/xlink" width="110" height="23" viewBox="0 0 110 23"><defs><clipPath id="a"><rect width="110" height="23" transform="translate(1566 1428)" fill="#9394a1" stroke="#707070" stroke-width="1"/></clipPath></defs><g transform="translate(-1566 -1428)" clip-path="url(#a)"><path d="M9.453,0a9.917,9.917,0,0,1,2.6.289,5.64,5.64,0,0,1,2.021.794A3.337,3.337,0,0,1,15.37,2.6,5.73,5.73,0,0,1,15.8,4.908a4.031,4.031,0,0,1-.722,2.526,5.227,5.227,0,0,1-2.021,1.659A4.825,4.825,0,0,1,15.8,10.969a5.685,5.685,0,0,1,.938,3.175,5.752,5.752,0,0,1-.577,2.6,4.8,4.8,0,0,1-1.588,1.8,7.439,7.439,0,0,1-2.309,1.01,10.768,10.768,0,0,1-2.6.361H0V0ZM8.876,8.082A3.284,3.284,0,0,0,10.824,7.5a2.1,2.1,0,0,0,.722-1.8,2.748,2.748,0,0,0-.216-1.155,2.047,2.047,0,0,0-.649-.722,3.625,3.625,0,0,0-.938-.361,5.833,5.833,0,0,0-1.155-.072H4.4V8.082ZM9.092,16.6a6.414,6.414,0,0,0,1.227-.144,2.542,2.542,0,0,0,1.01-.434,2.573,2.573,0,0,0,.722-.794,3.45,3.45,0,0,0,.289-1.3,2.783,2.783,0,0,0-.866-2.238,3.806,3.806,0,0,0-2.309-.649H4.4V16.6Zm13.927-.072a3.528,3.528,0,0,0,2.6.866,3.945,3.945,0,0,0,2.093-.577,2.887,2.887,0,0,0,1.082-1.3h3.536a7.036,7.036,0,0,1-2.6,3.752,7.708,7.708,0,0,1-4.185,1.155,8.485,8.485,0,0,1-3.1-.578,5.764,5.764,0,0,1-2.309-1.587,5.724,5.724,0,0,1-1.443-2.382,8.487,8.487,0,0,1-.505-3.1,8.36,8.36,0,0,1,.505-3.031,7.778,7.778,0,0,1,1.515-2.453A7.328,7.328,0,0,1,22.514,5.7a8.1,8.1,0,0,1,3.031-.577,6.732,6.732,0,0,1,3.247.722A5.858,5.858,0,0,1,31.03,7.793a8.736,8.736,0,0,1,1.3,2.742,15.14,15.14,0,0,1,.144,3.175H22.009A4.146,4.146,0,0,0,23.02,16.525Zm4.546-7.577a3.126,3.126,0,0,0-2.237-.794,3.431,3.431,0,0,0-1.588.361,3.778,3.778,0,0,0-1.01.794,1.927,1.927,0,0,0-.505,1.01,4.958,4.958,0,0,0-.144.938h6.495a3.827,3.827,0,0,0-1.01-2.309ZM38.1,0V7.5h.072a4.248,4.248,0,0,1,1.948-1.8,5.457,5.457,0,0,1,2.309-.577,6.489,6.489,0,0,1,2.6.433,3.918,3.918,0,0,1,1.588,1.227,4.92,4.92,0,0,1,.794,1.876,12.41,12.41,0,0,1,.216,2.453v8.876H43.658V11.835a5.054,5.054,0,0,0-.577-2.67A2.113,2.113,0,0,0,41.132,8.3a2.77,2.77,0,0,0-2.309.939,5.291,5.291,0,0,0-.722,3.174v7.577H34.132V0ZM50.513,7.649A5.314,5.314,0,0,1,52.1,6.133a7.07,7.07,0,0,1,2.165-.794,13.281,13.281,0,0,1,2.381-.216c.722,0,1.443.072,2.238.144a5.956,5.956,0,0,1,2.02.577,4.219,4.219,0,0,1,1.516,1.227A3.607,3.607,0,0,1,63,9.165v7.577a15.26,15.26,0,0,0,.144,1.877,3.025,3.025,0,0,0,.505,1.37H59.606a1.761,1.761,0,0,1-.289-.649,2.457,2.457,0,0,1-.072-.722,5.531,5.531,0,0,1-2.237,1.37,8.073,8.073,0,0,1-2.6.361,5.813,5.813,0,0,1-1.948-.288,4.692,4.692,0,0,1-1.588-.795,4.157,4.157,0,0,1-1.082-1.37,5.22,5.22,0,0,1-.361-1.949,4.187,4.187,0,0,1,.433-2.021,4.726,4.726,0,0,1,1.082-1.3,5.353,5.353,0,0,1,1.588-.722,13.521,13.521,0,0,1,1.8-.361l1.732-.216q.866-.108,1.515-.216a3.771,3.771,0,0,0,1.082-.505,1.031,1.031,0,0,0,.361-.938,1.911,1.911,0,0,0-.216-1.01,2.2,2.2,0,0,0-.577-.577,2.573,2.573,0,0,0-.794-.288,4.395,4.395,0,0,0-1.01-.073,2.689,2.689,0,0,0-1.8.505,2.425,2.425,0,0,0-.794,1.66H49.864a4.3,4.3,0,0,1,.649-2.237Zm7.865,5.629c-.216.072-.5.144-.794.216s-.577.073-.938.144c-.288.072-.649.072-.938.144L54.842,14a1.692,1.692,0,0,0-.722.361,1.945,1.945,0,0,0-.505.577,1.406,1.406,0,0,0-.216.938,1.539,1.539,0,0,0,.216.866,1.936,1.936,0,0,0,.505.577,2.566,2.566,0,0,0,.794.289,3.842,3.842,0,0,0,.937.072,3.965,3.965,0,0,0,1.8-.361,2.9,2.9,0,0,0,.939-.938,2.147,2.147,0,0,0,.361-1.082,4.138,4.138,0,0,0,.072-.866V12.917a2.885,2.885,0,0,1-.65.361ZM68.987,5.484V7.5h.072a4.246,4.246,0,0,1,1.948-1.8,6.1,6.1,0,0,1,2.453-.577,6.489,6.489,0,0,1,2.6.433,3.488,3.488,0,0,1,1.588,1.227,6.444,6.444,0,0,1,.865,1.876,12.406,12.406,0,0,1,.217,2.453v8.876H74.76V11.835a5.053,5.053,0,0,0-.578-2.67,2.2,2.2,0,0,0-2.021-.938A2.889,2.889,0,0,0,69.78,9.309a5.3,5.3,0,0,0-.722,3.175v7.577H65.09V5.484ZM87.6,8.082a2.737,2.737,0,0,0-1.587.434A3.328,3.328,0,0,0,84.934,9.67a4.752,4.752,0,0,0-.578,1.515,6.5,6.5,0,0,0-.144,1.66,11.907,11.907,0,0,0,.144,1.587,4.316,4.316,0,0,0,.578,1.443,3.6,3.6,0,0,0,1.01,1.082,2.742,2.742,0,0,0,1.587.434,3.245,3.245,0,0,0,2.237-.795,3.343,3.343,0,0,0,.939-2.165h3.825a6.651,6.651,0,0,1-2.238,4.4,7.248,7.248,0,0,1-4.763,1.515,7.721,7.721,0,0,1-2.959-.577,6.421,6.421,0,0,1-2.309-1.515,7.142,7.142,0,0,1-1.516-2.309,7.975,7.975,0,0,1-.5-2.959,8.49,8.49,0,0,1,.5-3.1,7.958,7.958,0,0,1,1.443-2.526A7.535,7.535,0,0,1,84.5,5.7a8.478,8.478,0,0,1,3.1-.577,9.156,9.156,0,0,1,2.453.361,6.294,6.294,0,0,1,2.093,1.01,4.415,4.415,0,0,1,1.515,1.732,6.117,6.117,0,0,1,.649,2.453h-3.9a2.52,2.52,0,0,0-2.814-2.6ZM21.216,1.371H29.3V3.319H21.216Zm79.306,15.154a3.646,3.646,0,0,0,2.6.866,3.942,3.942,0,0,0,2.093-.577,2.878,2.878,0,0,0,1.082-1.3h3.464a7.036,7.036,0,0,1-2.6,3.752,7.71,7.71,0,0,1-4.185,1.155,8.492,8.492,0,0,1-3.1-.578,5.766,5.766,0,0,1-2.308-1.587,5.724,5.724,0,0,1-1.443-2.382,8.487,8.487,0,0,1-.505-3.1,8.36,8.36,0,0,1,.505-3.031,7.764,7.764,0,0,1,1.515-2.453A7.328,7.328,0,0,1,99.944,5.7a8.387,8.387,0,0,1,3.031-.577,6.265,6.265,0,0,1,3.175.722,5.868,5.868,0,0,1,2.237,1.948,8.737,8.737,0,0,1,1.3,2.742,9.579,9.579,0,0,1,.288,3.247H99.51a4.09,4.09,0,0,0,1.011,2.742Zm4.618-7.577a3.127,3.127,0,0,0-2.237-.794,3.434,3.434,0,0,0-1.588.361,2.891,2.891,0,0,0-1.01.794,2.671,2.671,0,0,0-.505,1.01,5.011,5.011,0,0,0-.144.938h6.495a4.933,4.933,0,0,0-1.011-2.309Z" transform="translate(1566 1429.289)" fill="#9394a1"/></g></svg>