<svg xmlns="http://www.w3.org/2000/svg" xmlns:xlink="http://www.w3.org/1999/xlink" width="110" height="23" viewBox="0 0 110 23"><defs><clipPath id="a"><rect width="110" height="23" transform="translate(1566 1513)" fill="#9394a1" stroke="#707070" stroke-width="1"/></clipPath></defs><g transform="translate(-1566 -1513)" clip-path="url(#a)"><g transform="translate(1579.824 1483.159)"><path d="M23.681,38.826h0l-.652,2.312Zm3.355,5.018-.719,0ZM26.851,47.3h0l-4.306.016Zm.9-3.448-.719,0ZM27.228,47l.75-2.861L27.228,47h0ZM43.083,33.828l-1.4,6.569Zm-3.592,0L38.43,38.736l1.061-4.908Z" fill="#9394a1"/><path d="M42.844,33.533H39.856a.393.393,0,0,0-.366.3l-1.061,4.908-1.061,4.908a.392.392,0,0,1-.365.295H34.888c-2.092,0-1.85-1.448-1.422-3.43l.013-.06.047-.25c0-.016.006-.032.009-.047l.1-.509.1-.545c.031-.164.078-.4.109-.556l.482-2.356.483-2.356a.237.237,0,0,0-.241-.3H31.5a.39.39,0,0,0-.364.3l-.659,3.129-.659,3.128a.016.016,0,0,0,0,0l-.061.291c-.76,3.468-.558,6.775,3.57,6.878l.12,0h6.48a.391.391,0,0,0,.365-.3l1.4-6.569,1.4-6.569A.235.235,0,0,0,42.844,33.533Zm11.92,10.439a.237.237,0,0,1,.241.3l-.29,1.418m-.29,1.419.29-1.419-.29,1.419Zm-.364.3h0c-.879.007-3.522.027-5.508.027C50.972,47.43,54.062,47.4,54.062,47.4Zm-7.289-5.257c0-.155.174-.423.34-.423l-.374-.006C46.572,43.408,46.773,42.146,46.773,42.146Z" fill="#9394a1"/><path d="M48.828,47.43h0Zm5.937-3.457a.237.237,0,0,1,.241.3l-.29,1.418-.047.231m-4.426,1.509h0Zm-.734,0h0Zm-.224,0h0Zm-.228,0h0Zm.409,0h0ZM50.23,47.426Zm3.834-.023c-.644,0-2.236.017-3.823.024C51.827,47.42,53.419,47.408,54.064,47.4Zm.362-.3.243-1.188-.243,1.189h0Zm-5.211.324h0Zm-.446,0h0Zm.226,0h0ZM5.286,42.181l.464-2.057-.531,2.352-.509,2.4.446-2.1c.034-.163.093-.428.129-.59ZM10.841,33.5H7.56a.4.4,0,0,0-.369.294L6.88,35.166,6.569,36.54a.231.231,0,0,0,.235.294h3.307a.393.393,0,0,0,.366-.295l.3-1.373.3-1.372h0a.233.233,0,0,0-.238-.295Zm-.714,4.569h0l-.962,4.452.962-4.452ZM.594,52.82s1.654.021,2.706.021c-.8,0-2.118-.015-2.707-.022h0Zm5.62-14.754-.465,2.057Z" fill="#9394a1"/><path d="M9.89,37.772H6.582a.4.4,0,0,0-.368.295L5.75,40.124l-.464,2.058c-.037.162-.1.428-.129.59l-.446,2.1-.446,2.1c-.035.162-.106.423-.159.581,0,0-.618,1.838-1.657,1.817l-.13,0-.9-.017h0a.394.394,0,0,0-.371.288L.7,51.081.362,52.522a.231.231,0,0,0,.23.3c.589.007,1.908.023,2.707.023,2.595,0,3.962-1.438,4.839-5.574l1.026-4.748.962-4.452a.234.234,0,0,0-.238-.294Zm46.982,9.49a.234.234,0,0,1-.238-.3l2.488-11.654M60.33,46.966l1.007-4.974Z" fill="#9394a1"/><path d="M56.669,47.114a1.285,1.285,0,0,1,.027-.443l1.181-5.532-1.244,5.827a.234.234,0,0,0,.237.3h.3C57.008,47.262,56.689,47.2,56.669,47.114Zm3.463.081a1.569,1.569,0,0,1-.466.066h.3a.384.384,0,0,0,.361-.3l.06-.3c-.032.163-.166.488-.257.525Zm.7-2.717.444-2.2a.015.015,0,0,1,0,0l-.443,2.191Zm9.817-8.386.137.566a.229.229,0,0,1-.233.294M60.39,46.67l.444-2.191ZM70.514,35.513l.136.58Zm-9.237,6.771c.033-.162.087-.426.122-.587l.474-2.222-.538,2.517Zm-2.115-7.162c-.033.157-.075.355-.1.486l-1.18,5.532,1.244-5.827Z" fill="#9394a1"/><path d="M70.786,36.659l-.137-.566-.136-.58-.069-.294c-.269-1.044-1.057-1.646-2.769-1.646l-2.666,0-2.455,0H59.792a.389.389,0,0,0-.364.3l-.122.577-.144.682-.04.191-1.244,5.827L56.7,46.671a1.288,1.288,0,0,0-.027.443c.02.082.338.148.505.148h2.492a1.58,1.58,0,0,0,.466-.067c.09-.037.224-.362.257-.525l.444-2.191.443-2.191a.012.012,0,0,1,0,0l.059-.292.537-2.517.475-2.223a.391.391,0,0,1,.364-.294l7.842,0a.229.229,0,0,0,.23-.295Z" fill="#9394a1"/><path d="M80.882,31.539l-.6,0h-2.51a.64.64,0,0,0-.471.249l-5.55,8.131c-.094.137-.2.117-.237-.045L71.1,38.085a.4.4,0,0,0-.369-.294H67.164a.216.216,0,0,0-.219.29l1.6,5.6a1.331,1.331,0,0,1,.008.582l-.7,2.711a.223.223,0,0,0,.227.292h3.526a.411.411,0,0,0,.377-.292l.7-2.711a1.782,1.782,0,0,1,.257-.533l9.011-11.958c.1-.133.046-.24-.12-.239l-.947.006ZM52.534,38.554v0a.364.364,0,0,1-.353.312H47.658a.194.194,0,0,1-.213-.237l0-.01h0c0-.005,0-.01,0-.015s.009-.032.02-.077a2.835,2.835,0,0,1,2.967-1.9c1.862,0,2.226.909,2.1,1.932Zm-1.327-5.222c-5.807,0-7.183,3.524-7.954,7.082-.772,3.626-.706,7.016,5.3,7.016h.954l.721,0h.012c1.586-.006,3.178-.018,3.823-.023a.393.393,0,0,0,.361-.3l.243-1.189.047-.231.29-1.418a.237.237,0,0,0-.241-.3h-5.4c-2.149,0-2.787-.571-2.552-2.249h8.64a.357.357,0,0,0,.314-.223.338.338,0,0,0,.021-.076h0c1.281-4.836.913-8.093-4.58-8.093Zm-27.444,5.2-.082.289h0l-.652,2.311-.652,2.31a.423.423,0,0,1-.384.29H18.542c-2.618,0-3.255-2.047-2.618-5.068.637-3.089,1.887-5.009,4.463-5.2,3.521-.266,4.225,2.211,3.375,5.069Zm2.367,5.024a38.7,38.7,0,0,0,2-6.233c.506-3.055-1.024-7.485-6.931-7.485-5.874,0-8.425,4.23-9.4,8.828-.973,4.631.3,8.693,6.142,8.66l4.607-.017,4.306-.016A.417.417,0,0,0,27.231,47l.75-2.861a.223.223,0,0,0-.225-.293l-.719,0-.719,0a.185.185,0,0,1-.2-.213.272.272,0,0,1,.017-.067h0Z" fill="#9394a1"/><path d="M55.208,40.915a.2.2,0,1,1-.2-.2A.2.2,0,0,1,55.208,40.915Z" fill="#9394a1"/></g></g></svg>