<svg xmlns="http://www.w3.org/2000/svg" xmlns:xlink="http://www.w3.org/1999/xlink" width="110" height="23" viewBox="0 0 110 23"><defs><clipPath id="a"><rect width="110" height="23" transform="translate(1566 1302)" fill="#9394a1" stroke="#707070" stroke-width="1"/></clipPath></defs><g transform="translate(-1566 -1302)" clip-path="url(#a)"><path d="M46.659,5.184a7.168,7.168,0,0,0-5.625,2.764v0h0V5.474H36.3V22.726h4.736V12.909A3.7,3.7,0,0,1,44.94,9.264a3.8,3.8,0,0,1,3.988,3.645v9.816h4.737V12.031a6.64,6.64,0,0,0-7.007-6.847m40.676.29L83.053,17.226,78.77,5.475H73.359l7.1,17.246h5.191l7.1-17.246Zm-65.181,5.2A4.407,4.407,0,0,1,25.8,8.952a3.963,3.963,0,0,1,3.672,2.414L21.194,14.8a5.547,5.547,0,0,1,.961-4.128m9.1,6.75A7.2,7.2,0,0,1,26.3,19.249a5.249,5.249,0,0,1-3.82-1.4L34.6,12.826a9.351,9.351,0,0,0-2.068-4.817,8.655,8.655,0,0,0-6.814-2.826A8.836,8.836,0,0,0,16.576,14.1c0,5.207,3.937,8.917,9.659,8.917a11.364,11.364,0,0,0,8.017-3.294Zm-15.132.954H5.358V.314H.556V22.726H16.124Zm85.128-9.133A4.543,4.543,0,0,0,96.686,14.1a4.7,4.7,0,0,0,4.63,4.857,4.573,4.573,0,0,0,4.566-4.857,4.7,4.7,0,0,0-4.63-4.857m0,13.773a8.923,8.923,0,1,1,9.3-8.916,8.951,8.951,0,0,1-9.3,8.916M64.78,9.243A4.542,4.542,0,0,0,60.214,14.1a4.7,4.7,0,0,0,4.63,4.857A4.573,4.573,0,0,0,69.41,14.1a4.7,4.7,0,0,0-4.63-4.857m0,13.773a8.923,8.923,0,1,1,9.3-8.916,8.95,8.95,0,0,1-9.3,8.916" transform="translate(1565.444 1301.833)" fill="#9394a1"/></g></svg>