<svg xmlns="http://www.w3.org/2000/svg" width="81" height="78" viewBox="0 0 81 78"><g transform="translate(-926 -1146)"><g transform="translate(-14 -10)"><rect width="25" height="25" rx="1" transform="translate(962 1156)" fill="rgba(18,170,86,0.34)"/></g><g transform="translate(15 19)"><rect width="25" height="25" rx="1" transform="translate(967 1159)" fill="rgba(243,156,186,0.34)"/></g><g transform="translate(-25)"><rect width="68" height="68" rx="5" transform="translate(951 1156)" fill="#8c98db"/><g transform="translate(82 2)"><g transform="translate(0)"><circle cx="4" cy="4" r="4" transform="translate(881 1166)" fill="#fff"/><circle cx="4" cy="4" r="4" transform="translate(899 1166)" fill="#12aa56"/><circle cx="4" cy="4" r="4" transform="translate(917 1166)" fill="#fff"/></g><g transform="translate(0 18)"><circle cx="4" cy="4" r="4" transform="translate(881 1166)" fill="#fff"/><circle cx="4" cy="4" r="4" transform="translate(899 1166)" fill="#fff"/><circle cx="4" cy="4" r="4" transform="translate(917 1166)" fill="#f39cba"/></g><g transform="translate(0 36)"><circle cx="4" cy="4" r="4" transform="translate(881 1166)" fill="#fff"/><circle cx="4" cy="4" r="4" transform="translate(899 1166)" fill="#fff"/><circle cx="4" cy="4" r="4" transform="translate(917 1166)" fill="#fff"/></g></g></g></g></svg>