<svg xmlns="http://www.w3.org/2000/svg" width="154" height="153" viewBox="0 0 154 153"><g transform="translate(2933 -346) rotate(90)"><circle cx="4.5" cy="4.5" r="4.5" transform="translate(346 2779)" fill="#f1f4f8"/><circle cx="4.5" cy="4.5" r="4.5" transform="translate(370 2779)" fill="#f1f4f8"/><circle cx="4.5" cy="4.5" r="4.5" transform="translate(394 2779)" fill="#f1f4f8"/><circle cx="4.5" cy="4.5" r="4.5" transform="translate(418 2779)" fill="#f1f4f8"/><circle cx="4.5" cy="4.5" r="4.5" transform="translate(442 2779)" fill="#f1f4f8"/><circle cx="4.5" cy="4.5" r="4.5" transform="translate(466 2779)" fill="#f1f4f8"/><circle cx="4.5" cy="4.5" r="4.5" transform="translate(490 2779)" fill="#f1f4f8"/><g transform="translate(0 29)"><circle cx="4.5" cy="4.5" r="4.5" transform="translate(346 2779)" fill="#f1f4f8"/><circle cx="4.5" cy="4.5" r="4.5" transform="translate(370 2779)" fill="#f1f4f8"/><circle cx="4.5" cy="4.5" r="4.5" transform="translate(394 2779)" fill="#f1f4f8"/><circle cx="4.5" cy="4.5" r="4.5" transform="translate(418 2779)" fill="#f1f4f8"/><circle cx="4.5" cy="4.5" r="4.5" transform="translate(442 2779)" fill="#f1f4f8"/><circle cx="4.5" cy="4.5" r="4.5" transform="translate(466 2779)" fill="#f1f4f8"/><circle cx="4.5" cy="4.5" r="4.5" transform="translate(490 2779)" fill="#f1f4f8"/></g><g transform="translate(0 58)"><circle cx="4.5" cy="4.5" r="4.5" transform="translate(346 2779)" fill="#f1f4f8"/><circle cx="4.5" cy="4.5" r="4.5" transform="translate(370 2779)" fill="#f1f4f8"/><circle cx="4.5" cy="4.5" r="4.5" transform="translate(394 2779)" fill="#f1f4f8"/><circle cx="4.5" cy="4.5" r="4.5" transform="translate(418 2779)" fill="#f1f4f8"/><circle cx="4.5" cy="4.5" r="4.5" transform="translate(442 2779)" fill="#f1f4f8"/><circle cx="4.5" cy="4.5" r="4.5" transform="translate(466 2779)" fill="#f1f4f8"/><circle cx="4.5" cy="4.5" r="4.5" transform="translate(490 2779)" fill="#f1f4f8"/></g><g transform="translate(0 87)"><circle cx="4.5" cy="4.5" r="4.5" transform="translate(346 2779)" fill="#f1f4f8"/><circle cx="4.5" cy="4.5" r="4.5" transform="translate(370 2779)" fill="#f1f4f8"/><circle cx="4.5" cy="4.5" r="4.5" transform="translate(394 2779)" fill="#f1f4f8"/><circle cx="4.5" cy="4.5" r="4.5" transform="translate(418 2779)" fill="#f1f4f8"/><circle cx="4.5" cy="4.5" r="4.5" transform="translate(442 2779)" fill="#f1f4f8"/><circle cx="4.5" cy="4.5" r="4.5" transform="translate(466 2779)" fill="#f1f4f8"/><circle cx="4.5" cy="4.5" r="4.5" transform="translate(490 2779)" fill="#f1f4f8"/></g><g transform="translate(0 116)"><circle cx="4.5" cy="4.5" r="4.5" transform="translate(346 2779)" fill="#f1f4f8"/><circle cx="4.5" cy="4.5" r="4.5" transform="translate(370 2779)" fill="#f1f4f8"/><circle cx="4.5" cy="4.5" r="4.5" transform="translate(394 2779)" fill="#f1f4f8"/><circle cx="4.5" cy="4.5" r="4.5" transform="translate(418 2779)" fill="#f1f4f8"/><circle cx="4.5" cy="4.5" r="4.5" transform="translate(442 2779)" fill="#f1f4f8"/><circle cx="4.5" cy="4.5" r="4.5" transform="translate(466 2779)" fill="#f1f4f8"/><circle cx="4.5" cy="4.5" r="4.5" transform="translate(490 2779)" fill="#f1f4f8"/></g><g transform="translate(0 145)"><circle cx="4.5" cy="4.5" r="4.5" transform="translate(346 2779)" fill="#f1f4f8"/><circle cx="4.5" cy="4.5" r="4.5" transform="translate(370 2779)" fill="#f1f4f8"/><circle cx="4.5" cy="4.5" r="4.5" transform="translate(394 2779)" fill="#f1f4f8"/><circle cx="4.5" cy="4.5" r="4.5" transform="translate(418 2779)" fill="#f1f4f8"/><circle cx="4.5" cy="4.5" r="4.5" transform="translate(442 2779)" fill="#f1f4f8"/><circle cx="4.5" cy="4.5" r="4.5" transform="translate(466 2779)" fill="#f1f4f8"/><circle cx="4.5" cy="4.5" r="4.5" transform="translate(490 2779)" fill="#f1f4f8"/></g></g></svg>