<svg xmlns="http://www.w3.org/2000/svg" xmlns:xlink="http://www.w3.org/1999/xlink" width="418.648" height="205.728" viewBox="0 0 418.648 205.728"><defs><linearGradient id="a" x1="0.062" y1="0.422" x2="1.087" y2="0.426" gradientUnits="objectBoundingBox"><stop offset="0" stop-color="#fc464d"/><stop offset="1" stop-color="#d90c13"/></linearGradient></defs><g transform="translate(-1052.685 -201.605)"><g transform="translate(-15 11.333)"><path d="M1137.8,380.6s38.586-10.35,53.486-15.4,6.114-4.8,6.114-4.8l1.2-21.8h-16.8L1146,365.2l-8.2,15.4" transform="translate(0 0)" fill="#d85e88"/><path d="M1388,364.333,1486.333,313l-96.666-25-29-16.667,24,85.333V359.6" fill="#d85e88"/></g><g transform="translate(-70 -22)"><path d="M1246.833,265.667,1247.5,315,1354,333.167l95-23.333-1.833-47-96.167-12Z" fill="#e7af7c" stroke="#3b3086" stroke-linejoin="round" stroke-width="1"/><path d="M1353.25,282.333v50.75l95.75-23-1.5-47.125Z" fill="#a56832" stroke="#3b3086" stroke-linejoin="round" stroke-width="1"/><path d="M1252.75,316.583v83.5l100.5,28.75,87.75-30.5v-85.75l-90,20.5Z" fill="#e7af7c" stroke="#3b3086" stroke-linejoin="round" stroke-width="1"/><path d="M1351.75,332.958l1.5,95.875,88.25-30.625V312.083Z" fill="#a56832" stroke="#3b3086" stroke-linejoin="round" stroke-width="1"/><path d="M1351.313,337.708l-98-16.812v-3.75l98,16.5Z" fill="#a56832"/><path d="M1247.417,266.5l105.166,15.917" fill="none" stroke="#ffe4b6" stroke-width="1"/><path d="M1309.2,263.533c-.8,0-17.2,6.8-17.2,6.8s-3.8,5.8-3.8,10.2-2.8,38.4-1.8,39.8,4,2.4,3.4,7.4-4,65.8-1.6,82.4c19.2,7,20.2,5.2,20.2,5.2l-1.4-18.8s.8-40.4,1.4-48.4.8-21.4.8-21.4l-3.2-1.6s-.4-27.6,2.4-40c1.4-10.4.8-11.6.8-11.6l38.2-12s42.8,7.4,45,9.8,6.2,35.4,6,42.4-1,8-1,8l-6.6,3.4v26.6c0,35-1.6,54.8-1.6,63.6,17.6-6,18-5.2,18-5.2s1.8-14.2,1.4-22.2c-.6-11,0-42.8,0-42.8l-1.4-22.2,7-2.6s1.4-13.4,1-16.8-3.6-29-3.6-29-1.2-5.4-4.4-7.4-21.4-5.6-21.4-5.6,24-6.2,26.8-9.8c2.8-3.4-2.2-16.2-2.2-16.2s.8-8.2-3.2-9.2-17.8-.4-26,6c-12.4,5.8-22.6,11.8-22.6,11.8l-13.4-5-10.2,3.8s-4.4-6.4-6.6-7.4-20.4-2.4-22.4-2-14-9.4-14-9.4l-23.4,3.6,19.6,14.4s-9.4,8.2-8.4,12.6,4.6,8.8,22.8,8.8C1317.2,263.333,1309.2,263.533,1309.2,263.533Z" stroke="#3b3086" stroke-width="1" fill="url(#a)"/><path d="M1288.75,321.771c-.687-.625,16.875,2.875,16.875,2.875s2.938,1.25,3.188,2.938a3.673,3.673,0,0,1-.375,2.563l-18.062-2.875S1289.438,322.4,1288.75,321.771Z" fill="#bc0f15"/><path d="M1397.75,322c.188-.125,16.438-3.667,16.438-3.667v1.875l-7.25,2.688-15.687,3.521v-1.083Z" fill="#bc0f15"/><path d="M1358.833,244.333S1400,237,1404.667,233s5.333-5.833,2.833-6.5a54.772,54.772,0,0,0-20,2.917c-3.5,1.417-8.356,4.391-13.583,7.083C1366.365,240.391,1358.833,244.333,1358.833,244.333Z" fill="#bc0f15"/><path d="M1348.8,256.533a113.561,113.561,0,0,0,37.8,4.6" fill="#bc0f15"/><path d="M1345.833,252.333c.064-2.667-23.666,8.333-32.666,10.833-8.167,2.5,34.666-6.167,34.666-6.167A7.019,7.019,0,0,1,1345.833,252.333Z" fill="#bc0f15"/><g transform="translate(-15 11.333)"><path d="M1319.833,222.5s-1.793.717-4.543,1.936c-1.364.6-3.305,1.5-5.219,2.46a52.915,52.915,0,0,0-6.738,4.438L1296.167,239s16.583-10.521,30.083-12.1,23.917,5.771,23.917,5.771-4.334-7.5-7.334-8.333-19.666-1.833-19.666-1.833Z" fill="#bc0f15"/><path d="M1350.833,232.667s9.668-1.5,11.584,1.833-12.25-1.833-12.25-1.833" transform="translate(-1)" fill="#bc0f15"/><path d="M1350.833,232.667s9.668-1.5,11.584,1.833-12.25-1.833-12.25-1.833" transform="matrix(-0.875, 0.485, -0.485, -0.875, 2668.133, -217.972)" fill="#bc0f15"/><path d="M1306.143,262l16.715,2.429" fill="none" stroke="#f99da1" stroke-width="1"/><path d="M1306.143,262a55.074,55.074,0,0,0,9.385,2.56,21.675,21.675,0,0,0,7.33-.132" transform="translate(153.171 678.622) rotate(-31)" fill="none" stroke="#f99da1" stroke-linecap="round" stroke-width="2"/><path d="M1306.143,262s1.912.717,4.652,1.5a37.933,37.933,0,0,0,4.733,1.056,21.675,21.675,0,0,0,7.33-.132" transform="translate(2611.237 -77.428) rotate(155)" fill="none" stroke="#f99da1" stroke-linecap="round" stroke-width="3"/><path d="M1425,224.5a18.021,18.021,0,0,1-10.375,7.875c-9.3,2.614,11.875-3.75,11.875-3.75Z" fill="#bc0f15"/></g></g><g transform="translate(-15 11.333)"><path d="M1221.167,299.5s-3.084,45.969-22.917,62.969c-.167-19.333,0-23.406,0-23.406Z" fill="#a56832"/><g transform="translate(158.67 -276.588) rotate(11)"><path d="M1054.5,338c21.625.625,31.5,28,31.5,28s20.625-27.375,39-28,33,12.25,25.5,43.5S1086,458,1086,458a25.818,25.818,0,0,1-8.417-1.333c-11.6-11.216-43-49.864-50.083-75.167C1019,351.125,1032.875,337.375,1054.5,338Z" fill="#ab1015" stroke="#3b3086" stroke-width="2"/><path d="M1054.5,338c21.625.625,31.5,28,31.5,28s20.625-27.375,39-28,33,12.25,25.5,43.5S1086,458,1086,458s-50-46.125-58.5-76.5S1032.875,337.375,1054.5,338Z" transform="translate(-9 -2)" fill="#f73e45" stroke="#3b3086" stroke-width="2"/></g><ellipse cx="3" cy="3.5" rx="3" ry="3.5" transform="translate(1101.452 257.41) rotate(49)" fill="#fff"/><path d="M1098.8,282.8a35.693,35.693,0,0,0,0,22.8" transform="translate(-4 -13)" fill="none" stroke="#fff" stroke-linecap="round" stroke-width="3"/></g></g></svg>