<svg xmlns="http://www.w3.org/2000/svg" width="77" height="68" viewBox="0 0 77 68"><g transform="translate(-917 -1156)"><g transform="translate(-42 6)"><rect width="25" height="25" rx="1" transform="translate(959 1172)" fill="rgba(18,170,86,0.72)"/></g><g transform="translate(-82 31)"><rect width="25" height="25" rx="1" transform="translate(999 1147)" fill="rgba(243,156,186,0.72)"/></g><g transform="translate(-25)"><rect width="68" height="68" rx="5" transform="translate(951 1156)" fill="#8c98db"/><g transform="translate(82 2)"><g transform="translate(0)"><circle cx="4" cy="4" r="4" transform="translate(917 1166)" fill="#fff"/><circle cx="4" cy="4" r="4" transform="translate(899 1166)" fill="#fff"/><circle cx="4" cy="4" r="4" transform="translate(881 1184)" fill="#f39cba"/><circle cx="4" cy="4" r="4" transform="translate(881 1166)" fill="#fff"/></g><g transform="translate(0 18)"><circle cx="4" cy="4" r="4" transform="translate(899 1166)" fill="#fff"/><circle cx="4" cy="4" r="4" transform="translate(917 1166)" fill="#fff"/><circle cx="4" cy="4" r="4" transform="translate(881 1166)" fill="#5e5e5e"/></g><g transform="translate(0 36)"><circle cx="4" cy="4" r="4" transform="translate(881 1166)" fill="#fff"/><circle cx="4" cy="4" r="4" transform="translate(899 1166)" fill="#fff"/><circle cx="4" cy="4" r="4" transform="translate(917 1166)" fill="#fff"/></g></g></g></g></svg>